<?xml version="1.0" encoding="utf-8"?>
<!-- Generator: Adobe Illustrator 16.0.0, SVG Export Plug-In . SVG Version: 6.00 Build 0)  -->
<!DOCTYPE svg PUBLIC "-//W3C//DTD SVG 1.1//EN" "http://www.w3.org/Graphics/SVG/1.1/DTD/svg11.dtd">
<svg version="1.1" id="Layer_1" xmlns="http://www.w3.org/2000/svg" xmlns:xlink="http://www.w3.org/1999/xlink" x="0px" y="0px"
	 width="62.786px" height="45px" viewBox="0 0 62.786 45" enable-background="new 0 0 62.786 45" xml:space="preserve">
<path fill="#008080" d="M62.624,19.604c-0.219-0.873-0.684-1.654-1.313-2.284l0.686-4.128c0.531-3.168-1.391-6.254-4.467-7.179
	c-1.788-0.531-3.714-0.265-5.283,0.741c-0.184,0.118-0.357,0.241-0.525,0.378c-0.373-1.906-1.646-3.576-3.48-4.395
	c-1.736-0.771-3.684-0.693-5.349,0.21C42.426,3.2,42.013,3.506,41.64,3.854c-0.245-0.624-0.589-1.212-1.038-1.732
	C39.454,0.771,37.777,0,36.004,0h-9.217c-1.774,0-3.449,0.771-4.604,2.121c-0.445,0.521-0.791,1.108-1.037,1.732
	c-0.373-0.348-0.788-0.653-1.247-0.905c-1.665-0.903-3.618-0.981-5.35-0.21C12.772,3.53,11.534,5.12,11.116,6.95
	c-0.152-0.123-0.313-0.241-0.48-0.349c-1.487-0.95-3.311-1.206-5.002-0.7c-3.291,0.991-5.344,4.286-4.777,7.674l0.629,3.776
	c-0.747,0.762-1.273,1.722-1.432,2.815c-0.338,2.365,0.961,4.614,3.086,5.544v9.959c0,1.925,1.345,3.536,3.144,3.97v4.313
	C6.283,44.528,6.747,45,7.325,45h3.143c0.429,0,0.812-0.262,0.97-0.659l1.83-4.573h36.251l1.835,4.573
	C51.51,44.738,51.895,45,52.324,45h3.136c0.584,0,1.049-0.472,1.049-1.048V39.64c1.799-0.434,3.143-2.045,3.143-3.97v-9.959
	C61.976,24.71,63.258,22.175,62.624,19.604 M53.377,8.518c1.057-0.68,2.35-0.858,3.551-0.496c2.068,0.619,3.361,2.693,3.003,4.824
	l-0.536,3.228c-0.035-0.014-0.071-0.023-0.107-0.034c-0.102-0.035-0.209-0.067-0.312-0.098c-0.163-0.051-0.327-0.092-0.49-0.123
	c-0.103-0.021-0.198-0.04-0.302-0.056c-0.245-0.035-0.491-0.061-0.741-0.061c-0.021,0-0.04-0.007-0.056-0.007
	c-3.372,0-6.111,2.739-6.111,6.112v4.945c-0.01-0.005-0.02-0.005-0.029-0.01c-0.625-0.211-1.253-0.398-1.887-0.567
	c-0.005,0-0.009,0-0.016-0.005l1.529-10.694l0.561-3.944C51.613,10.29,52.319,9.192,53.377,8.518 M12.072,31.393
	c-0.313,0-0.557-0.25-0.557-0.558v-1.844c0.198-0.07,0.403-0.143,0.608-0.215c0.377-0.132,0.76-0.255,1.144-0.367
	c0.393-0.118,0.792-0.226,1.19-0.322c0.26-0.066,0.526-0.123,0.786-0.18c0.583-0.123,1.165-0.229,1.747-0.315
	c0.231-0.036,0.467-0.067,0.696-0.097c0.588-0.072,1.18-0.123,1.767-0.153c0.236-0.011,0.471-0.026,0.705-0.032
	c0.594-0.015,1.18-0.01,1.774,0.011c0.233,0.011,0.47,0.017,0.705,0.03c0.577,0.037,1.159,0.098,1.741,0.174
	c0.291,0.037,0.578,0.067,0.869,0.118c0.26,0.04,0.516,0.082,0.777,0.133c0.648,0.122,1.292,0.261,1.936,0.435
	c0.112,0.029,0.226,0.07,0.342,0.102c0.589,0.169,1.176,0.357,1.758,0.567c0.098,0.03,0.195,0.065,0.287,0.102v2.412H12.072z
	 M32.443,28.985c0.092-0.035,0.188-0.07,0.287-0.106c0.582-0.21,1.164-0.398,1.756-0.567c0.113-0.031,0.226-0.072,0.343-0.102
	c0.644-0.168,1.287-0.313,1.937-0.435c0.256-0.051,0.516-0.093,0.776-0.133c0.287-0.046,0.578-0.081,0.868-0.118
	c0.578-0.072,1.16-0.137,1.743-0.174c0.235-0.014,0.471-0.02,0.705-0.03c0.593-0.021,1.182-0.025,1.773-0.011
	c0.235,0.006,0.465,0.021,0.699,0.032c0.594,0.035,1.18,0.086,1.769,0.158c0.235,0.024,0.465,0.056,0.694,0.092
	c0.582,0.086,1.164,0.192,1.748,0.315c0.266,0.057,0.525,0.118,0.787,0.18c0.403,0.097,0.797,0.21,1.194,0.322
	c0.383,0.112,0.762,0.24,1.146,0.367c0.205,0.072,0.403,0.145,0.607,0.22v1.839c0,0.308-0.25,0.558-0.557,0.558H32.443V28.985z
	 M43.888,4.786c1.094-0.592,2.37-0.638,3.501-0.137c1.613,0.717,2.564,2.438,2.318,4.186l-0.783,5.467l-1.623,11.4
	c-2.702-0.518-5.452-0.646-8.176-0.39L41.917,7.46C42.156,6.32,42.856,5.35,43.888,4.786 M23.772,3.479
	c0.756-0.88,1.855-1.384,3.016-1.384h9.217c1.16,0,2.258,0.504,3.009,1.384c0.756,0.884,1.089,2.044,0.905,3.194L39.877,6.96
	c-0.025,0.117-0.062,0.233-0.082,0.356l-2.922,18.308c-0.394,0.066-0.787,0.143-1.177,0.23c-0.091,0.02-0.179,0.035-0.271,0.057
	c-0.342,0.08-0.689,0.162-1.031,0.255c-0.139,0.04-0.276,0.077-0.414,0.111c-0.291,0.083-0.583,0.175-0.87,0.262
	c-0.183,0.056-0.362,0.111-0.541,0.174c-0.25,0.086-0.495,0.174-0.746,0.265c-0.142,0.051-0.286,0.098-0.429,0.153
	c-0.143-0.056-0.291-0.103-0.434-0.153c-0.246-0.091-0.496-0.179-0.74-0.265c-0.18-0.063-0.364-0.118-0.543-0.174
	c-0.291-0.087-0.582-0.179-0.873-0.262c-0.139-0.04-0.272-0.077-0.409-0.111c-0.349-0.086-0.688-0.175-1.037-0.255
	c-0.092-0.021-0.179-0.037-0.271-0.057c-0.389-0.088-0.777-0.164-1.172-0.23L22.99,7.316c-0.016-0.123-0.051-0.239-0.075-0.361
	l-0.048-0.281C22.689,5.523,23.021,4.363,23.772,3.479 M15.398,4.649c0.521-0.229,1.067-0.348,1.614-0.348
	c0.648,0,1.298,0.164,1.885,0.484c1.031,0.563,1.732,1.528,1.973,2.669l2.79,17.857c-2.724-0.26-5.473-0.128-8.17,0.383
	l-2.121-14.843v-0.005l-0.286-2.013C12.833,7.087,13.788,5.366,15.398,4.649 M3.39,16.08l-0.47-2.853
	c-0.394-2.349,1.033-4.633,3.312-5.318c1.106-0.332,2.303-0.163,3.274,0.455c0.977,0.623,1.625,1.636,1.793,2.78l2.141,15.026
	c-0.004,0.005-0.009,0.005-0.014,0.005c-0.635,0.169-1.264,0.356-1.887,0.567c-0.011,0.005-0.02,0.005-0.024,0.01v-4.945
	c0-2.989-2.157-5.477-4.993-6.004c-0.368-0.076-0.73-0.113-1.094-0.113c-0.158,0-0.312,0.032-0.469,0.046
	c-0.189,0.017-0.384,0.021-0.568,0.057c-0.051,0.011-0.098,0.025-0.148,0.042c-0.289,0.062-0.566,0.137-0.837,0.238
	C3.401,16.073,3.396,16.073,3.39,16.08 M9.756,42.904H8.372v-3.142h2.643L9.756,42.904z M54.415,42.904h-1.386l-1.252-3.142h2.638
	V42.904z M58.338,23.954c-0.094,0.024-0.174,0.064-0.256,0.112h-1.574c-0.577,0-1.049,0.47-1.049,1.046
	c0,0.578,0.472,1.049,1.049,1.049h1.048v9.504c0,1.107-0.9,2.008-2.009,2.008H7.237c-1.102,0-2.002-0.9-2.002-2.008v-9.504h1.048
	c0.576,0,1.042-0.471,1.042-1.049c0-0.576-0.466-1.046-1.042-1.046H4.709c-0.082-0.048-0.164-0.088-0.263-0.112
	c-1.547-0.404-2.549-1.901-2.319-3.49c0.108-0.756,0.513-1.42,1.09-1.9c0.015-0.011,0.029-0.016,0.039-0.027
	c1.156-0.918,3.149-1.185,4.785,0.399c0.877,0.843,1.377,2.095,1.377,3.435v10.069c0,0.577,0.467,1.048,1.049,1.048h41.856
	c0.577,0,1.042-0.471,1.042-1.048v-9.938c0-1.15,0.348-2.233,0.977-3.056c0.684-0.903,1.549-1.445,2.492-1.604
	c0.113-0.016,0.221-0.026,0.332-0.031c0.123-0.01,0.246-0.015,0.368-0.01c0.072,0.004,0.149,0.01,0.22,0.02
	c0.158,0.017,0.313,0.041,0.465,0.077c0.047,0.017,0.093,0.021,0.139,0.035c0.425,0.124,0.828,0.322,1.182,0.598
	c0.514,0.41,0.897,0.951,1.051,1.579C61.067,22.026,59.819,23.57,58.338,23.954"/>
</svg>
