<?xml version="1.0" encoding="utf-8"?>
<!-- Generator: Adobe Illustrator 16.0.0, SVG Export Plug-In . SVG Version: 6.00 Build 0)  -->
<!DOCTYPE svg PUBLIC "-//W3C//DTD SVG 1.1//EN" "http://www.w3.org/Graphics/SVG/1.1/DTD/svg11.dtd">
<svg version="1.1" id="Layer_1" xmlns="http://www.w3.org/2000/svg" xmlns:xlink="http://www.w3.org/1999/xlink" x="0px" y="0px"
	 width="45px" height="44.999px" viewBox="0 0 45 44.999" enable-background="new 0 0 45 44.999" xml:space="preserve">
<g>
	<path fill="#008080" d="M0,0.752c0.042,10.36,0.977,44.168,11.242,44.247h0.008h24c6.789-0.147,8.734-7.613,9.743-14.896
		c0.029-0.215-0.035-0.431-0.178-0.597c-0.143-0.162-0.35-0.257-0.565-0.257H29.557C26.828,26.359,25.5,17.026,25.5,0.75
		c0-0.304-0.183-0.578-0.463-0.692c-0.28-0.117-0.602-0.052-0.817,0.162l-2.47,2.47l-2.47-2.47c-0.293-0.293-0.768-0.293-1.061,0
		l-2.47,2.47l-2.47-2.47c-0.293-0.293-0.768-0.293-1.061,0l-2.47,2.47L7.28,0.22c-0.293-0.293-0.768-0.293-1.061,0l-2.47,2.47
		L1.28,0.22C1.065,0.004,0.742-0.059,0.461,0.058C0.181,0.175-0.001,0.448,0,0.752 M15.673,43.499
		c3.192-2.461,4.474-7.595,5.229-12.75h8.346c0.002-0.001,0.004-0.001,0.005,0h14.131c-1.337,8.83-3.795,12.656-8.149,12.75H15.673z
		 M1.516,2.575L3.22,4.28c0.293,0.293,0.768,0.293,1.061,0l2.47-2.47l2.47,2.47c0.293,0.293,0.768,0.293,1.061,0l2.47-2.47
		l2.47,2.47c0.293,0.293,0.768,0.293,1.061,0l2.47-2.47l2.47,2.47c0.293,0.293,0.768,0.293,1.061,0l1.725-1.726
		c0.091,14.258,1.272,22.871,3.681,26.694H20.25c-0.375,0-0.691,0.276-0.743,0.647c-1.307,9.435-3.78,13.504-8.271,13.603h-0.002
		C4.826,43.452,1.764,23.205,1.516,2.575"/>
	<path fill="#008080" d="M21,12.75H5.25c-0.414,0-0.75-0.336-0.75-0.75s0.336-0.75,0.75-0.75H21c0.414,0,0.75,0.336,0.75,0.75
		S21.414,12.75,21,12.75"/>
	<path fill="#008080" d="M21,16.5H5.25c-0.414,0-0.75-0.336-0.75-0.75S4.836,15,5.25,15H21c0.414,0,0.75,0.336,0.75,0.75
		S21.414,16.5,21,16.5"/>
</g>
</svg>
