<?xml version="1.0" encoding="utf-8"?>
<!-- Generator: Adobe Illustrator 16.0.0, SVG Export Plug-In . SVG Version: 6.00 Build 0)  -->
<!DOCTYPE svg PUBLIC "-//W3C//DTD SVG 1.1//EN" "http://www.w3.org/Graphics/SVG/1.1/DTD/svg11.dtd">
<svg version="1.1" id="Layer_1" xmlns="http://www.w3.org/2000/svg" xmlns:xlink="http://www.w3.org/1999/xlink" x="0px" y="0px"
	 width="141.609px" height="50.014px" viewBox="0 0 141.609 50.014" enable-background="new 0 0 141.609 50.014"
	 xml:space="preserve">
<g>
	<path fill="#008080" d="M73.172,24.959l-3.775,2.746c-0.197,0.143-0.243,0.42-0.099,0.619c0.087,0.118,0.223,0.182,0.36,0.182
		c0.091,0,0.182-0.028,0.26-0.085l5.372-3.906l-5.372-3.906c-0.199-0.143-0.477-0.1-0.62,0.098
		c-0.143,0.199-0.099,0.477,0.099,0.619l3.775,2.746h-5.29c-3.179,0-5.764,2.587-5.764,5.767c0,0.244,0.199,0.444,0.444,0.444
		c0.244,0,0.443-0.2,0.443-0.444c0-2.69,2.188-4.879,4.876-4.879H73.172z"/>
	<path fill="#008080" d="M78.969,28.505c-0.244,0-0.441,0.2-0.441,0.444c0,2.69-2.189,4.879-4.879,4.879h-5.287l3.773-2.746
		c0.2-0.143,0.243-0.42,0.098-0.619c-0.143-0.196-0.42-0.242-0.619-0.098l-5.37,3.907l5.37,3.906
		c0.08,0.056,0.172,0.084,0.261,0.084c0.138,0,0.271-0.063,0.358-0.182c0.146-0.199,0.103-0.477-0.098-0.62l-3.773-2.745h5.287
		c3.18,0,5.765-2.588,5.765-5.767C79.413,28.705,79.216,28.505,78.969,28.505"/>
	<path fill="#008080" d="M104.963,45.036c-0.338-1.955-2.047-3.448-4.097-3.448c-1.638,0-3.057,0.952-3.733,2.33
		c-0.134-0.095-0.277-0.18-0.424-0.257V29.948c0-0.459-0.373-0.832-0.832-0.832s-0.831,0.373-0.831,0.832v13.303
		c-1.834,0-3.326,1.492-3.326,3.326c0,1.835,1.492,3.326,3.326,3.326h9.146c1.375,0,2.495-1.119,2.495-2.494
		C106.687,46.302,105.963,45.362,104.963,45.036 M104.191,48.24h-9.146c-0.917,0-1.663-0.745-1.663-1.663
		c0-0.917,0.746-1.663,1.663-1.663c0.776,0,1.465,0.451,1.715,1.123c0.142,0.377,0.53,0.599,0.927,0.527s0.685-0.416,0.685-0.818
		c0-1.375,1.119-2.495,2.494-2.495s2.495,1.12,2.495,2.495c0,0.459,0.373,0.831,0.83,0.831c0.458,0,0.832,0.374,0.832,0.832
		S104.649,48.24,104.191,48.24"/>
	<path fill="#008080" d="M140.777,6.666h-15.798c-0.459,0-0.832,0.373-0.832,0.832c0,0.458,0.373,0.831,0.832,0.831h14.966v17.949
		L117.252,3.584c-0.162-0.163-0.376-0.244-0.59-0.244c-0.215,0-0.428,0.081-0.591,0.244L93.383,26.277V8.329h9.146
		c0.46,0,0.832-0.373,0.832-0.831V4.171c0-0.458-0.372-0.831-0.832-0.831h-0.831V1.677h4.989V3.34h-0.831
		c-0.46,0-0.832,0.373-0.832,0.831v3.327c0,0.458,0.372,0.831,0.832,0.831h2.494c0.459,0,0.831-0.373,0.831-0.831
		c0-0.459-0.372-0.832-0.831-0.832h-1.663V5.003h0.831c0.459,0,0.832-0.372,0.832-0.832V0.846c0-0.459-0.373-0.832-0.832-0.832
		h-6.65c-0.461,0-0.832,0.373-0.832,0.832v3.325c0,0.46,0.371,0.832,0.832,0.832h0.83v1.663h-9.146c-0.22,0-0.433,0.087-0.588,0.244
		c-0.156,0.155-0.244,0.367-0.244,0.588l0.003,20.787c0,0.337,0.203,0.639,0.514,0.768c0.104,0.042,0.211,0.063,0.318,0.063
		c0.217,0,0.43-0.084,0.588-0.243l23.52-23.528l23.527,23.528c0.159,0.159,0.372,0.243,0.588,0.243c0.107,0,0.215-0.021,0.318-0.063
		c0.311-0.129,0.513-0.432,0.513-0.768V7.498C141.609,7.039,141.236,6.666,140.777,6.666"/>
	<path fill="#008080" d="M138.283,43.251V29.948c0-0.459-0.373-0.832-0.831-0.832c-0.459,0-0.832,0.373-0.832,0.832v13.713
		c-0.147,0.077-0.29,0.162-0.424,0.257c-0.678-1.378-2.097-2.33-3.733-2.33c-2.051,0-3.759,1.493-4.097,3.448
		c-0.999,0.326-1.724,1.266-1.724,2.373c0,0.293,0.06,0.57,0.153,0.831h-14.289c-0.459,0-0.832,0.373-0.832,0.832
		c0,0.458,0.373,0.831,0.832,0.831h25.776c1.834,0,3.326-1.492,3.326-3.326S140.117,43.251,138.283,43.251 M138.283,48.24h-9.146
		c-0.457,0-0.832-0.373-0.832-0.831s0.375-0.832,0.832-0.832c0.459,0,0.831-0.372,0.831-0.831c0-1.375,1.119-2.495,2.495-2.495
		c1.375,0,2.494,1.12,2.494,2.495c0,0.402,0.288,0.747,0.684,0.818c0.395,0.072,0.786-0.15,0.928-0.527
		c0.25-0.672,0.938-1.123,1.715-1.123c0.917,0,1.663,0.746,1.663,1.663C139.946,47.495,139.2,48.24,138.283,48.24"/>
	<path fill="#008080" d="M119.99,16.644c0-1.834-1.492-3.325-3.326-3.325s-3.326,1.491-3.326,3.325c0,1.835,1.492,3.326,3.326,3.326
		S119.99,18.479,119.99,16.644 M115.001,16.644c0-0.916,0.746-1.662,1.663-1.662s1.663,0.746,1.663,1.662
		c0,0.918-0.745,1.664-1.663,1.664C115.747,18.308,115.001,17.562,115.001,16.644"/>
	<path fill="#008080" d="M132.463,28.284h-6.652c-0.459,0-0.831,0.373-0.831,0.832v9.146h-0.832c-0.459,0-0.831,0.373-0.831,0.831
		c0,0.459,0.372,0.832,0.831,0.832h9.979c0.459,0,0.832-0.373,0.832-0.832c0-0.458-0.373-0.831-0.832-0.831h-0.831v-9.146
		C133.295,28.657,132.922,28.284,132.463,28.284 M131.632,38.263h-4.989v-3.326h4.989V38.263z M131.632,33.273h-4.989v-3.326h4.989
		V33.273z"/>
	<path fill="#008080" d="M124.979,45.746c0-0.459-0.372-0.831-0.832-0.831h-2.494V29.116c0-0.459-0.372-0.831-0.831-0.831h-8.315
		c-0.459,0-0.832,0.372-0.832,0.831v15.799h-2.493c-0.459,0-0.831,0.372-0.831,0.831v3.326c0,0.459,0.372,0.831,0.831,0.831
		s0.832-0.372,0.832-0.831v-2.494h14.134C124.607,46.578,124.979,46.205,124.979,45.746 M119.99,36.6h-0.831
		c-0.459,0-0.832,0.373-0.832,0.831c0,0.459,0.373,0.832,0.832,0.832h0.831v6.652h-6.652V29.948h6.652V36.6z"/>
	<path fill="#008080" d="M107.519,28.284h-6.651c-0.461,0-0.832,0.373-0.832,0.832v9.146h-0.831c-0.46,0-0.832,0.373-0.832,0.831
		c0,0.459,0.372,0.832,0.832,0.832h9.977c0.459,0,0.832-0.373,0.832-0.831c0-0.459-0.373-0.832-0.832-0.832h-0.831v-9.146
		C108.35,28.657,107.978,28.284,107.519,28.284 M106.687,38.263h-4.989v-3.326h4.989V38.263z M106.687,33.273h-4.989v-3.326h4.989
		V33.273z"/>
	<path fill="#008080" d="M33.26,39.204c0.459,0,0.832-0.371,0.832-0.831V36.71c0-0.459-0.373-0.831-0.832-0.831
		s-0.831,0.372-0.831,0.831v1.663C32.429,38.833,32.801,39.204,33.26,39.204"/>
	<path fill="#008080" d="M48.227,19.249h-0.302L42.553,7.737c-0.274-0.586-0.862-0.96-1.507-0.961H16.63V5.114
		c0.918-0.002,1.661-0.745,1.663-1.663V1.788c-0.002-0.918-0.745-1.662-1.663-1.663H9.978C9.06,0.126,8.315,0.87,8.314,1.788v1.663
		C8.315,4.369,9.06,5.112,9.978,5.114v1.662H8.845C8.198,6.777,7.611,7.151,7.338,7.735L1.965,19.249H1.662
		C0.744,19.25,0.001,19.994,0,20.912v1.663c0.001,0.918,0.744,1.662,1.662,1.662v24.945c0,0.459,0.373,0.831,0.832,0.831h44.901
		c0.459,0,0.831-0.372,0.831-0.831V24.237c0.918,0,1.662-0.744,1.663-1.662v-1.663C49.889,19.994,49.145,19.25,48.227,19.249
		 M9.978,1.788h6.652l0.001,1.663H9.978V1.788z M11.641,5.114h3.326v1.662h-3.326V5.114z M7.483,11.766h4.157v1.663H6.517
		l0.792-1.699C7.365,11.749,7.424,11.76,7.483,11.766 M5.746,15.077c0.026,0.002,0.049,0.015,0.074,0.015h2.494v1.663
		c0,0.459,0.373,0.831,0.832,0.831s0.831-0.372,0.831-0.831v-1.663h9.147c0.459,0,0.83-0.373,0.83-0.832s-0.371-0.831-0.83-0.831
		h-5.821v-1.663h4.158c0.459,0,0.831-0.373,0.831-0.832s-0.372-0.831-0.831-0.831H8.068l0.776-1.663h32.201l5.044,10.81h-6.838
		l-3.609-6.237c-0.266-0.397-0.801-0.505-1.198-0.241c-0.096,0.064-0.178,0.146-0.241,0.241l-3.61,6.237H3.8L5.746,15.077z
		 M43.237,44.193h-3.326V30.058c0-0.459-0.372-0.831-0.831-0.831h-8.314c-0.46,0-0.832,0.372-0.832,0.831v14.136h-3.326V29.45
		l8.315-14.362l8.314,14.362V44.193z M38.248,44.193h-6.651V30.89h6.651V44.193z M1.662,20.912H29.63l-0.964,1.663H1.662V20.912z
		 M27.703,24.237l-2.646,4.572c-0.008,0.016-0.008,0.032-0.016,0.048c-0.043,0.103-0.071,0.209-0.087,0.319
		c-0.001,0.018-0.01,0.032-0.01,0.05v14.967c-0.459,0-0.831,0.372-0.831,0.831H3.325V24.237H27.703z M3.325,46.688h20.787v1.663
		H3.325V46.688z M25.776,45.856h18.293v2.495H25.776V45.856z M45.731,46.688h0.832v1.663h-0.832V46.688z M46.563,45.024h-0.832
		c0.001-0.459-0.371-0.831-0.831-0.831V29.227c0-0.018-0.009-0.032-0.01-0.049c-0.016-0.11-0.044-0.218-0.086-0.32
		c-0.008-0.016-0.007-0.032-0.017-0.048l-2.646-4.572h4.422V45.024z M48.227,22.575h-7.048l-0.963-1.663h8.011V22.575z"/>
	<path fill="#008080" d="M8.314,43.361h11.642c1.377-0.001,2.493-1.116,2.495-2.493V27.563c0-0.459-0.373-0.832-0.832-0.832H6.651
		c-0.459,0-0.831,0.373-0.831,0.832v13.305C5.821,42.245,6.938,43.36,8.314,43.361 M20.788,38.373h-5.82v-4.157h5.82V38.373z
		 M13.304,38.373h-5.82v-4.157h5.82V38.373z M20.788,40.868c-0.001,0.459-0.373,0.83-0.832,0.83H8.314
		c-0.459,0-0.831-0.371-0.831-0.83v-0.832h13.305V40.868z M20.788,32.553h-5.82v-4.157h5.82V32.553z M13.304,32.553h-5.82v-4.157
		h5.82V32.553z"/>
</g>
</svg>
