<?xml version="1.0" encoding="utf-8"?>
<!-- Generator: Adobe Illustrator 16.0.0, SVG Export Plug-In . SVG Version: 6.00 Build 0)  -->
<!DOCTYPE svg PUBLIC "-//W3C//DTD SVG 1.1//EN" "http://www.w3.org/Graphics/SVG/1.1/DTD/svg11.dtd">
<svg version="1.1" id="Layer_1" xmlns="http://www.w3.org/2000/svg" xmlns:xlink="http://www.w3.org/1999/xlink" x="0px" y="0px"
	 width="47.289px" height="51.316px" viewBox="0 0 47.289 51.316" enable-background="new 0 0 47.289 51.316" xml:space="preserve">
<g>
	<path fill="#008080" d="M16.479,8.199c0-0.377-0.205-0.724-0.536-0.904l-4.396-2.404L9.143,0.493c-0.359-0.659-1.447-0.659-1.806,0
		L4.931,4.891L0.535,7.295C0.205,7.475,0,7.822,0,8.199c0,0.377,0.206,0.723,0.536,0.903l4.396,2.405l2.406,4.396
		c0.18,0.331,0.527,0.536,0.904,0.536c0.375,0,0.722-0.206,0.902-0.536l2.405-4.396l4.396-2.405
		C16.274,8.922,16.479,8.576,16.479,8.199 M10.293,9.844c-0.172,0.094-0.314,0.237-0.409,0.41L8.24,13.262l-1.646-3.008
		C6.5,10.081,6.358,9.938,6.185,9.844L3.176,8.199l3.009-1.645C6.358,6.459,6.5,6.318,6.594,6.144L8.24,3.135l1.644,3.009
		c0.095,0.173,0.237,0.314,0.409,0.41l3.009,1.645L10.293,9.844z"/>
	<path fill="#008080" d="M30.363,35.104l-4.396-2.405l-2.405-4.396c-0.36-0.66-1.447-0.66-1.806,0l-2.406,4.396l-4.395,2.405
		c-0.331,0.181-0.536,0.526-0.536,0.902c0,0.378,0.206,0.726,0.536,0.904l4.395,2.405l2.406,4.396
		c0.18,0.329,0.527,0.536,0.904,0.536c0.375,0,0.722-0.207,0.902-0.536l2.405-4.396l4.396-2.405c0.331-0.18,0.536-0.526,0.536-0.904
		C30.899,35.631,30.695,35.284,30.363,35.104 M24.714,37.654c-0.172,0.095-0.315,0.236-0.41,0.409l-1.644,3.009l-1.646-3.009
		c-0.095-0.173-0.236-0.314-0.409-0.409l-3.009-1.646l3.009-1.645c0.173-0.094,0.314-0.237,0.409-0.409l1.646-3.009l1.644,3.009
		c0.095,0.172,0.237,0.315,0.41,0.409l3.009,1.645L24.714,37.654z"/>
	<path fill="#008080" d="M46.754,44.323l-3.008-1.646l-1.646-3.007c-0.359-0.661-1.445-0.661-1.806,0l-1.646,3.007l-3.007,1.646
		c-0.33,0.181-0.535,0.526-0.535,0.903s0.205,0.724,0.535,0.902l3.007,1.646l1.646,3.007c0.181,0.331,0.526,0.536,0.902,0.536
		c0.377,0,0.725-0.205,0.903-0.536l1.646-3.007l3.008-1.646c0.33-0.18,0.534-0.525,0.534-0.902
		C47.291,44.849,47.084,44.503,46.754,44.323 M42.495,46.112c-0.174,0.096-0.315,0.237-0.41,0.41l-0.887,1.619l-0.885-1.619
		c-0.095-0.173-0.237-0.314-0.411-0.41l-1.619-0.886l1.619-0.887c0.174-0.095,0.316-0.236,0.411-0.409l0.885-1.62l0.887,1.62
		c0.095,0.173,0.236,0.314,0.41,0.409l1.619,0.887L42.495,46.112z"/>
	<path fill="#008080" d="M31.001,17.681h-0.604l0.427-0.481c0.403-0.402,0.403-1.082,0-1.484c-0.401-0.402-1.11-0.417-1.513-0.014
		l-0.485,0.413v-0.603c0-0.569-0.459-1.03-1.028-1.03s-1.029,0.461-1.029,1.03v0.603l-0.37-0.426c-0.403-0.402-1.026-0.402-1.428,0
		s-0.388,1.109,0.015,1.511l0.439,0.481h-0.603c-0.569,0-1.028,0.461-1.028,1.029c0,0.569,0.459,1.03,1.028,1.03h0.604L25,20.113
		c-0.402,0.402-0.402,1.027,0,1.429c0.201,0.202,0.465,0.288,0.727,0.288c0.264,0,0.471-0.107,0.672-0.308l0.37-0.433v0.603
		c0,0.568,0.46,1.029,1.029,1.029s1.028-0.461,1.028-1.029v-0.603l0.485,0.427c0.201,0.201,0.493,0.3,0.757,0.3
		c0.264,0,0.541-0.1,0.743-0.3c0.401-0.402,0.408-1,0.006-1.402l-0.42-0.373h0.604c0.569,0,1.03-0.461,1.03-1.03
		C32.033,18.142,31.571,17.681,31.001,17.681"/>
	<path fill="#008080" d="M6.283,38.28H5.14v-1.139c0-0.568-0.461-1.029-1.03-1.029s-1.029,0.461-1.029,1.029v1.139H2.164
		c-0.571,0-1.03,0.461-1.03,1.029c0,0.569,0.459,1.03,1.03,1.03H3.08v0.921c0,0.569,0.459,1.03,1.029,1.03
		c0.57,0,1.031-0.461,1.031-1.03v-0.921h1.143c0.569,0,1.03-0.461,1.03-1.03C7.313,38.74,6.852,38.28,6.283,38.28"/>
	<path fill="#008080" d="M36.455,5.94c0.201,0.202,0.464,0.302,0.728,0.302c0.263,0,0.526-0.101,0.728-0.302l0.817-0.816
		l0.817,0.816c0.201,0.202,0.463,0.302,0.728,0.302c0.263,0,0.527-0.101,0.728-0.302c0.401-0.402,0.401-1.054,0-1.456l-0.817-0.817
		L41,2.85c0.401-0.402,0.401-1.054,0-1.456c-0.403-0.402-1.055-0.402-1.456,0l-0.818,0.817L37.91,1.394
		c-0.403-0.402-1.055-0.402-1.457,0s-0.402,1.054,0,1.456l0.816,0.817l-0.816,0.817C36.051,4.886,36.051,5.538,36.455,5.94"/>
</g>
</svg>
