<?xml version="1.0" encoding="utf-8"?>
<!-- Generator: Adobe Illustrator 16.0.0, SVG Export Plug-In . SVG Version: 6.00 Build 0)  -->
<!DOCTYPE svg PUBLIC "-//W3C//DTD SVG 1.1//EN" "http://www.w3.org/Graphics/SVG/1.1/DTD/svg11.dtd">
<svg version="1.1" id="Layer_1" xmlns="http://www.w3.org/2000/svg" xmlns:xlink="http://www.w3.org/1999/xlink" x="0px" y="0px"
	 width="57.444px" height="45px" viewBox="0 0 57.444 45" enable-background="new 0 0 57.444 45" xml:space="preserve">
<g>
	<path fill="#008080" d="M57.444,26.982c0-0.075-0.015-0.145-0.024-0.22c0.024-0.146,0.029-0.29-0.002-0.436L54.747,4.67
		l-0.028-0.146C53.963,1.86,51.584,0,48.932,0H8.514c-2.651,0-5.03,1.86-5.788,4.524L0.028,26.327
		c-0.032,0.146-0.028,0.29-0.004,0.436C0.016,26.838,0,26.907,0,26.982v5.396c0,0.808,0.324,1.543,0.842,2.089
		C0.324,35.014,0,35.742,0,36.557v2.523c0,1.277,0.795,2.371,1.918,2.819V45h8.615v-2.877h36.379V45h8.615v-3.101
		c1.123-0.448,1.917-1.542,1.917-2.819v-2.523c0-0.814-0.323-1.543-0.841-2.09c0.518-0.546,0.841-1.281,0.841-2.089V26.982z
		 M9.364,15.759l4.651-4.652c0.768-0.766,2.016-0.766,2.781,0l4.647,4.652c0.664,0.659,0.757,1.669,0.271,2.43H9.094
		C8.611,17.428,8.701,16.418,9.364,15.759 M8.616,20.106h40.213c2.308,0,4.245,1.646,4.689,3.828H3.928
		C4.371,21.752,6.307,20.106,8.616,20.106 M35.043,15.759l4.651-4.652c0.767-0.766,2.015-0.766,2.781,0l4.646,4.652
		c0.664,0.659,0.759,1.669,0.272,2.43H34.772C34.291,17.428,34.379,16.418,35.043,15.759 M1.918,32.378v-5.4
		c0-0.084,0.027-0.164,0.047-0.247c0.022-0.089,0.047-0.182,0.094-0.267c0.018-0.037,0.046-0.07,0.068-0.104
		c0.053-0.079,0.104-0.155,0.174-0.214c0.041-0.039,0.088-0.066,0.141-0.094c0.061-0.043,0.122-0.09,0.195-0.122
		c0.127-0.047,0.263-0.079,0.412-0.079h51.348c0.145,0,0.285,0.032,0.412,0.079c0.066,0.028,0.121,0.071,0.177,0.107
		c-0.243,0.173-0.411,0.444-0.411,0.767c0,0.529,0.426,0.958,0.953,0.958v3.829c-0.527,0-0.953,0.431-0.953,0.958
		c0,0.323,0.168,0.594,0.411,0.767c-0.172,0.113-0.369,0.192-0.589,0.192H3.049C2.422,33.509,1.918,32.998,1.918,32.378
		 M4.592,4.982c0.533-1.781,2.172-3.066,3.922-3.066h40.418c1.748,0,3.39,1.285,3.927,3.066l2.127,17.266
		c-0.949-2.203-3.048-3.798-5.54-4.025c0.389-1.314,0.07-2.783-0.967-3.82l-4.647-4.646c-1.515-1.515-3.978-1.515-5.493,0
		l-4.646,4.646c-1.033,1.033-1.352,2.482-0.977,3.786h-8.938c0.37-1.304,0.056-2.753-0.976-3.786l-4.647-4.646
		c-1.515-1.515-3.978-1.515-5.493,0l-4.646,4.646c-1.08,1.08-1.385,2.618-0.926,3.973c-2.08,0.487-3.791,1.945-4.623,3.873
		L4.592,4.982z M8.616,43.082H3.829v-0.959h4.787V43.082z M53.616,43.082h-4.787v-0.959h4.787V43.082z M55.527,39.08
		c0,0.622-0.504,1.133-1.131,1.133H3.049c-0.627,0-1.131-0.511-1.131-1.133v-2.528c0-0.622,0.504-1.126,1.131-1.126h51.353
		c0.622,0,1.126,0.504,1.126,1.131V39.08z"/>
	<path fill="#008080" d="M7.658,29.68c0,0.528-0.426,0.959-0.953,0.959c-0.533,0-0.959-0.431-0.959-0.959s0.426-0.959,0.959-0.959
		C7.232,28.721,7.658,29.151,7.658,29.68"/>
	<path fill="#008080" d="M4.787,26.805c0,0.533-0.43,0.959-0.959,0.959c-0.526,0-0.957-0.426-0.957-0.959
		c0-0.528,0.431-0.953,0.957-0.953C4.357,25.852,4.787,26.276,4.787,26.805"/>
	<path fill="#008080" d="M10.533,26.805c0,0.533-0.431,0.959-0.959,0.959c-0.527,0-0.958-0.426-0.958-0.959
		c0-0.528,0.431-0.953,0.958-0.953C10.103,25.852,10.533,26.276,10.533,26.805"/>
	<path fill="#008080" d="M4.787,32.55c0,0.529-0.43,0.959-0.959,0.959c-0.526,0-0.957-0.43-0.957-0.959
		c0-0.528,0.431-0.958,0.957-0.958C4.357,31.592,4.787,32.021,4.787,32.55"/>
	<path fill="#008080" d="M10.533,32.55c0,0.529-0.431,0.959-0.959,0.959c-0.527,0-0.958-0.43-0.958-0.959
		c0-0.528,0.431-0.958,0.958-0.958C10.103,31.592,10.533,32.021,10.533,32.55"/>
	<path fill="#008080" d="M13.403,29.68c0,0.528-0.425,0.959-0.96,0.959c-0.526,0-0.951-0.431-0.951-0.959s0.425-0.959,0.951-0.959
		C12.979,28.721,13.403,29.151,13.403,29.68"/>
	<path fill="#008080" d="M19.148,29.68c0,0.528-0.43,0.959-0.959,0.959c-0.527,0-0.958-0.431-0.958-0.959s0.431-0.959,0.958-0.959
		C18.719,28.721,19.148,29.151,19.148,29.68"/>
	<path fill="#008080" d="M16.279,26.805c0,0.533-0.432,0.959-0.959,0.959c-0.529,0-0.959-0.426-0.959-0.959
		c0-0.528,0.43-0.953,0.959-0.953C15.848,25.852,16.279,26.276,16.279,26.805"/>
	<path fill="#008080" d="M22.019,26.805c0,0.533-0.425,0.959-0.953,0.959c-0.533,0-0.958-0.426-0.958-0.959
		c0-0.528,0.425-0.953,0.958-0.953C21.594,25.852,22.019,26.276,22.019,26.805"/>
	<path fill="#008080" d="M16.279,32.55c0,0.529-0.432,0.959-0.959,0.959c-0.529,0-0.959-0.43-0.959-0.959
		c0-0.528,0.43-0.958,0.959-0.958C15.848,31.592,16.279,32.021,16.279,32.55"/>
	<path fill="#008080" d="M22.019,32.55c0,0.529-0.425,0.959-0.953,0.959c-0.533,0-0.958-0.43-0.958-0.959
		c0-0.528,0.425-0.958,0.958-0.958C21.594,31.592,22.019,32.021,22.019,32.55"/>
	<path fill="#008080" d="M24.895,29.68c0,0.528-0.432,0.959-0.959,0.959s-0.959-0.431-0.959-0.959s0.432-0.959,0.959-0.959
		S24.895,29.151,24.895,29.68"/>
	<path fill="#008080" d="M30.64,29.68c0,0.528-0.431,0.959-0.959,0.959s-0.958-0.431-0.958-0.959s0.43-0.959,0.958-0.959
		S30.64,29.151,30.64,29.68"/>
	<path fill="#008080" d="M27.764,26.805c0,0.533-0.425,0.959-0.959,0.959c-0.527,0-0.951-0.426-0.951-0.959
		c0-0.528,0.424-0.953,0.951-0.953C27.339,25.852,27.764,26.276,27.764,26.805"/>
	<path fill="#008080" d="M33.51,26.805c0,0.533-0.43,0.959-0.959,0.959c-0.527,0-0.958-0.426-0.958-0.959
		c0-0.528,0.431-0.953,0.958-0.953C33.08,25.852,33.51,26.276,33.51,26.805"/>
	<path fill="#008080" d="M27.764,32.55c0,0.529-0.425,0.959-0.959,0.959c-0.527,0-0.951-0.43-0.951-0.959
		c0-0.528,0.424-0.958,0.951-0.958C27.339,31.592,27.764,32.021,27.764,32.55"/>
	<path fill="#008080" d="M33.51,32.55c0,0.529-0.43,0.959-0.959,0.959c-0.527,0-0.958-0.43-0.958-0.959
		c0-0.528,0.431-0.958,0.958-0.958C33.08,31.592,33.51,32.021,33.51,32.55"/>
	<path fill="#008080" d="M36.379,29.68c0,0.528-0.425,0.959-0.953,0.959c-0.532,0-0.957-0.431-0.957-0.959s0.425-0.959,0.957-0.959
		C35.954,28.721,36.379,29.151,36.379,29.68"/>
	<path fill="#008080" d="M42.125,29.68c0,0.528-0.426,0.959-0.959,0.959c-0.527,0-0.952-0.431-0.952-0.959s0.425-0.959,0.952-0.959
		C41.699,28.721,42.125,29.151,42.125,29.68"/>
	<path fill="#008080" d="M39.255,26.805c0,0.533-0.431,0.959-0.959,0.959c-0.526,0-0.958-0.426-0.958-0.959
		c0-0.528,0.432-0.953,0.958-0.953C38.824,25.852,39.255,26.276,39.255,26.805"/>
	<path fill="#008080" d="M45.001,26.805c0,0.533-0.431,0.959-0.96,0.959c-0.528,0-0.957-0.426-0.957-0.959
		c0-0.528,0.429-0.953,0.957-0.953C44.57,25.852,45.001,26.276,45.001,26.805"/>
	<path fill="#008080" d="M39.255,32.55c0,0.529-0.431,0.959-0.959,0.959c-0.526,0-0.958-0.43-0.958-0.959
		c0-0.528,0.432-0.958,0.958-0.958C38.824,31.592,39.255,32.021,39.255,32.55"/>
	<path fill="#008080" d="M45.001,32.55c0,0.529-0.431,0.959-0.96,0.959c-0.528,0-0.957-0.43-0.957-0.959
		c0-0.528,0.429-0.958,0.957-0.958C44.57,31.592,45.001,32.021,45.001,32.55"/>
	<path fill="#008080" d="M47.871,29.68c0,0.528-0.431,0.959-0.959,0.959c-0.527,0-0.959-0.431-0.959-0.959s0.432-0.959,0.959-0.959
		C47.44,28.721,47.871,29.151,47.871,29.68"/>
	<path fill="#008080" d="M53.616,29.68c0,0.528-0.431,0.959-0.959,0.959c-0.527,0-0.958-0.431-0.958-0.959s0.431-0.959,0.958-0.959
		C53.186,28.721,53.616,29.151,53.616,29.68"/>
	<path fill="#008080" d="M50.74,26.805c0,0.533-0.425,0.959-0.953,0.959c-0.533,0-0.958-0.426-0.958-0.959
		c0-0.528,0.425-0.953,0.958-0.953C50.315,25.852,50.74,26.276,50.74,26.805"/>
	<path fill="#008080" d="M50.74,32.55c0,0.529-0.425,0.959-0.953,0.959c-0.533,0-0.958-0.43-0.958-0.959
		c0-0.528,0.425-0.958,0.958-0.958C50.315,31.592,50.74,32.021,50.74,32.55"/>
	<path fill="#008080" d="M57.444,26.982c0-0.075-0.015-0.145-0.024-0.22c0.024-0.146,0.029-0.29-0.002-0.436L54.747,4.67
		l-0.028-0.146C53.963,1.86,51.584,0,48.932,0H8.514c-2.651,0-5.03,1.86-5.788,4.524L0.028,26.327
		c-0.032,0.146-0.028,0.29-0.004,0.436C0.016,26.838,0,26.907,0,26.982v5.396c0,0.808,0.324,1.543,0.842,2.089
		C0.324,35.014,0,35.742,0,36.557v2.523c0,1.277,0.795,2.371,1.918,2.819V45h8.615v-2.877h36.379V45h8.615v-3.101
		c1.123-0.448,1.917-1.542,1.917-2.819v-2.523c0-0.814-0.323-1.543-0.841-2.09c0.518-0.546,0.841-1.281,0.841-2.089V26.982z
		 M9.364,15.759l4.651-4.652c0.768-0.766,2.016-0.766,2.781,0l4.647,4.652c0.664,0.659,0.757,1.669,0.271,2.43H9.094
		C8.611,17.428,8.701,16.418,9.364,15.759 M8.616,20.106h40.213c2.308,0,4.245,1.646,4.689,3.828H3.928
		C4.371,21.752,6.307,20.106,8.616,20.106 M35.043,15.759l4.651-4.652c0.767-0.766,2.015-0.766,2.781,0l4.646,4.652
		c0.664,0.659,0.759,1.669,0.272,2.43H34.772C34.291,17.428,34.379,16.418,35.043,15.759 M1.918,32.378v-5.4
		c0-0.084,0.027-0.164,0.047-0.247c0.022-0.089,0.047-0.182,0.094-0.267c0.018-0.037,0.046-0.07,0.068-0.104
		c0.053-0.079,0.104-0.155,0.174-0.214c0.041-0.039,0.088-0.066,0.141-0.094c0.061-0.043,0.122-0.09,0.195-0.122
		c0.127-0.047,0.263-0.079,0.412-0.079h51.348c0.145,0,0.285,0.032,0.412,0.079c0.066,0.028,0.121,0.071,0.177,0.107
		c-0.243,0.173-0.411,0.444-0.411,0.767c0,0.529,0.426,0.958,0.953,0.958v3.829c-0.527,0-0.953,0.431-0.953,0.958
		c0,0.323,0.168,0.594,0.411,0.767c-0.172,0.113-0.369,0.192-0.589,0.192H3.049C2.422,33.509,1.918,32.998,1.918,32.378
		 M4.592,4.982c0.533-1.781,2.172-3.066,3.922-3.066h40.418c1.748,0,3.39,1.285,3.927,3.066l2.127,17.266
		c-0.949-2.203-3.048-3.798-5.54-4.025c0.389-1.314,0.07-2.783-0.967-3.82l-4.647-4.646c-1.515-1.515-3.978-1.515-5.493,0
		l-4.646,4.646c-1.033,1.033-1.352,2.482-0.977,3.786h-8.938c0.37-1.304,0.056-2.753-0.976-3.786l-4.647-4.646
		c-1.515-1.515-3.978-1.515-5.493,0l-4.646,4.646c-1.08,1.08-1.385,2.618-0.926,3.973c-2.08,0.487-3.791,1.945-4.623,3.873
		L4.592,4.982z M8.616,43.082H3.829v-0.959h4.787V43.082z M53.616,43.082h-4.787v-0.959h4.787V43.082z M55.527,39.08
		c0,0.622-0.504,1.133-1.131,1.133H3.049c-0.627,0-1.131-0.511-1.131-1.133v-2.528c0-0.622,0.504-1.126,1.131-1.126h51.353
		c0.622,0,1.126,0.504,1.126,1.131V39.08z"/>
</g>
</svg>
