<?xml version="1.0" encoding="utf-8"?>
<!-- Generator: Adobe Illustrator 16.0.0, SVG Export Plug-In . SVG Version: 6.00 Build 0)  -->
<!DOCTYPE svg PUBLIC "-//W3C//DTD SVG 1.1//EN" "http://www.w3.org/Graphics/SVG/1.1/DTD/svg11.dtd">
<svg version="1.1" id="Layer_1" xmlns="http://www.w3.org/2000/svg" xmlns:xlink="http://www.w3.org/1999/xlink" x="0px" y="0px"
	 width="92.959px" height="50.014px" viewBox="0 0 92.959 50.014" enable-background="new 0 0 92.959 50.014" xml:space="preserve">
<g>
	<path fill="#008080" d="M33.149,45.022c-0.339-1.955-2.048-3.448-4.098-3.448c-1.637,0-3.056,0.952-3.732,2.33
		c-0.135-0.095-0.277-0.18-0.425-0.257V29.935c0-0.459-0.373-0.832-0.832-0.832s-0.831,0.373-0.831,0.832v13.304
		c-1.835,0-3.325,1.491-3.325,3.325c0,1.835,1.49,3.326,3.325,3.326h9.146c1.375,0,2.495-1.119,2.495-2.494
		C34.873,46.289,34.147,45.349,33.149,45.022 M32.378,48.227h-9.146c-0.917,0-1.662-0.745-1.662-1.663
		c0-0.917,0.745-1.663,1.662-1.663c0.776,0,1.466,0.451,1.716,1.123c0.141,0.377,0.529,0.599,0.927,0.527
		c0.396-0.071,0.684-0.416,0.684-0.818c0-1.375,1.119-2.494,2.494-2.494s2.495,1.119,2.495,2.494c0,0.459,0.372,0.831,0.831,0.831
		c0.458,0,0.832,0.374,0.832,0.832S32.836,48.227,32.378,48.227"/>
	<path fill="#008080" d="M68.964,6.652H53.165c-0.459,0-0.831,0.373-0.831,0.832c0,0.458,0.372,0.831,0.831,0.831h14.967v17.949
		L45.438,3.57c-0.162-0.163-0.376-0.244-0.59-0.244s-0.427,0.081-0.59,0.244L21.568,26.264V8.315h9.146
		c0.46,0,0.832-0.373,0.832-0.831V4.157c0-0.458-0.372-0.831-0.832-0.831h-0.831V1.663h4.988v1.663h-0.83
		c-0.459,0-0.832,0.373-0.832,0.831v3.327c0,0.458,0.373,0.831,0.832,0.831h2.493c0.459,0,0.831-0.373,0.831-0.831
		c0-0.459-0.372-0.832-0.831-0.832h-1.663V4.989h0.832c0.459,0,0.831-0.372,0.831-0.832V0.832C36.535,0.373,36.163,0,35.704,0
		h-6.651c-0.46,0-0.832,0.373-0.832,0.832v3.325c0,0.46,0.372,0.832,0.832,0.832h0.831v1.663h-9.146
		c-0.22,0-0.433,0.087-0.588,0.244c-0.156,0.155-0.244,0.367-0.244,0.588l0.003,20.787c0,0.337,0.203,0.639,0.515,0.768
		c0.104,0.042,0.211,0.063,0.317,0.063c0.218,0,0.431-0.084,0.589-0.243L44.848,5.331l23.528,23.528
		c0.158,0.159,0.371,0.243,0.588,0.243c0.106,0,0.215-0.021,0.317-0.063c0.312-0.129,0.514-0.432,0.514-0.768V7.484
		C69.796,7.025,69.423,6.652,68.964,6.652"/>
	<path fill="#008080" d="M66.47,43.238V29.935c0-0.459-0.373-0.832-0.832-0.832s-0.832,0.373-0.832,0.832v13.713
		c-0.146,0.077-0.289,0.162-0.424,0.257c-0.678-1.378-2.096-2.33-3.732-2.33c-2.051,0-3.76,1.493-4.098,3.448
		c-0.998,0.326-1.724,1.267-1.724,2.373c0,0.293,0.06,0.57,0.154,0.831H40.693c-0.459,0-0.832,0.373-0.832,0.832
		c0,0.458,0.373,0.831,0.832,0.831H66.47c1.834,0,3.325-1.492,3.325-3.326S68.304,43.238,66.47,43.238 M66.47,48.227h-9.146
		c-0.459,0-0.832-0.373-0.832-0.831s0.373-0.832,0.832-0.832s0.831-0.372,0.831-0.831c0-1.375,1.119-2.494,2.495-2.494
		c1.375,0,2.494,1.119,2.494,2.494c0,0.402,0.287,0.747,0.684,0.818c0.395,0.072,0.786-0.15,0.927-0.527
		c0.25-0.672,0.939-1.123,1.716-1.123c0.916,0,1.662,0.746,1.662,1.663C68.132,47.481,67.386,48.227,66.47,48.227"/>
	<path fill="#008080" d="M48.176,16.631c0-1.835-1.491-3.326-3.325-3.326s-3.326,1.491-3.326,3.326c0,1.834,1.492,3.326,3.326,3.326
		S48.176,18.465,48.176,16.631 M43.188,16.631c0-0.917,0.746-1.663,1.663-1.663s1.662,0.746,1.662,1.663s-0.744,1.663-1.662,1.663
		C43.934,18.294,43.188,17.548,43.188,16.631"/>
	<path fill="#008080" d="M60.648,28.271h-6.651c-0.459,0-0.832,0.372-0.832,0.831v9.147h-0.831c-0.458,0-0.831,0.371-0.831,0.83
		s0.373,0.832,0.831,0.832h9.978c0.459,0,0.832-0.373,0.832-0.832s-0.373-0.83-0.832-0.83H61.48v-9.147
		C61.48,28.644,61.107,28.271,60.648,28.271 M59.817,38.25h-4.988v-3.326h4.988V38.25z M59.817,33.261h-4.988v-3.326h4.988V33.261z"
		/>
	<path fill="#008080" d="M53.165,45.732c0-0.459-0.372-0.831-0.832-0.831h-2.494V29.103c0-0.459-0.372-0.831-0.831-0.831h-8.314
		c-0.459,0-0.832,0.372-0.832,0.831v15.799h-2.494c-0.459,0-0.832,0.372-0.832,0.831v3.326c0,0.459,0.373,0.831,0.832,0.831
		s0.831-0.372,0.831-0.831v-2.494h14.135C52.793,46.564,53.165,46.191,53.165,45.732 M48.177,36.586h-0.832
		c-0.459,0-0.832,0.373-0.832,0.831c0,0.459,0.373,0.832,0.832,0.832h0.832v6.652h-6.652V29.935h6.652V36.586z"/>
	<path fill="#008080" d="M35.704,28.271h-6.651c-0.46,0-0.832,0.372-0.832,0.831v9.147H27.39c-0.459,0-0.832,0.371-0.832,0.83
		s0.373,0.832,0.832,0.832h9.977c0.46,0,0.832-0.373,0.832-0.832s-0.372-0.83-0.832-0.83h-0.83v-9.147
		C36.536,28.644,36.163,28.271,35.704,28.271 M34.872,38.25h-4.988v-3.326h4.988V38.25z M34.872,33.261h-4.988v-3.326h4.988V33.261z
		"/>
	<path fill="#008080" d="M92.959,33.26c0-6.753-5.475-12.227-12.227-12.227S68.505,26.507,68.505,33.26
		c0,6.754,5.476,12.228,12.228,12.228S92.959,40.012,92.959,33.26 M90.667,33.26c0,5.487-4.448,9.935-9.935,9.935
		c-5.487,0-9.935-4.447-9.935-9.935c0-5.486,4.447-9.935,9.935-9.935C86.219,23.325,90.667,27.774,90.667,33.26 M85.904,32.799
		l-4.418-4.367c-0.414-0.675-1.093-0.675-1.507,0l-4.42,4.367c-0.413,0.674-0.074,1.226,0.755,1.226h2.126v3.822
		c0,0.422,0.342,0.764,0.764,0.764h3.057c0.422,0,0.765-0.342,0.765-0.764v-3.822h2.125C85.98,34.024,86.319,33.473,85.904,32.799"
		/>
	<path fill="#008080" d="M16.14,32.496c0-4.457-3.613-8.07-8.069-8.07c-4.457,0-8.07,3.613-8.07,8.07s3.613,8.069,8.07,8.069
		C12.526,40.565,16.14,36.951,16.14,32.496 M14.626,32.496c0,3.621-2.935,6.556-6.556,6.556c-3.622,0-6.558-2.935-6.558-6.556
		s2.936-6.558,6.558-6.558C11.691,25.938,14.626,28.875,14.626,32.496 M11.483,32.191l-2.916-2.883
		c-0.273-0.445-0.721-0.445-0.995,0l-2.916,2.883c-0.273,0.444-0.049,0.81,0.498,0.81h1.403v2.521c0,0.278,0.226,0.504,0.504,0.504
		h2.018c0.278,0,0.504-0.226,0.504-0.504v-2.521h1.402C11.533,33,11.757,32.636,11.483,32.191"/>
</g>
</svg>
