<?xml version="1.0" encoding="utf-8"?>
<!-- Generator: Adobe Illustrator 16.0.0, SVG Export Plug-In . SVG Version: 6.00 Build 0)  -->
<!DOCTYPE svg PUBLIC "-//W3C//DTD SVG 1.1//EN" "http://www.w3.org/Graphics/SVG/1.1/DTD/svg11.dtd">
<svg version="1.1" id="Layer_1" xmlns="http://www.w3.org/2000/svg" xmlns:xlink="http://www.w3.org/1999/xlink" x="0px" y="0px"
	 width="200.127px" height="253.828px" viewBox="0 0 200.127 253.828" enable-background="new 0 0 200.127 253.828"
	 xml:space="preserve">
<g>
	<rect x="0.124" y="3.664" fill="#669D9D" width="47" height="41"/>
	<rect x="0.124" y="16.664" fill="#008080" width="47" height="28"/>
	<polygon fill="#008033" points="18.653,44.664 47.123,44.664 47.123,17.527 	"/>
	<polygon fill="#006633" points="37.2,44.664 0.124,44.664 0.124,8.254 	"/>
	<path d="M64.396,14.447c0,2.117,0,3.861,0.109,4.787c0.067,0.64,0.201,1.126,0.865,1.215c0.311,0.043,0.8,0.088,0.998,0.088
		c0.134,0,0.178,0.065,0.178,0.133c0,0.109-0.11,0.176-0.354,0.176c-1.22,0-2.616-0.066-2.728-0.066
		c-0.112,0-1.509,0.066-2.174,0.066c-0.243,0-0.354-0.045-0.354-0.176c0-0.067,0.044-0.133,0.178-0.133
		c0.199,0,0.466-0.045,0.665-0.088c0.443-0.089,0.555-0.575,0.643-1.215c0.111-0.926,0.111-2.67,0.111-4.787v-3.881
		c0-3.441,0-4.059-0.045-4.766c-0.044-0.75-0.266-1.125-0.754-1.234c-0.242-0.066-0.532-0.09-0.687-0.09
		c-0.089,0-0.178-0.043-0.178-0.131c0-0.133,0.11-0.177,0.354-0.177c0.731,0,2.129,0.065,2.24,0.065
		c0.111,0,1.508-0.065,2.173-0.065c0.244,0,0.355,0.044,0.355,0.177c0,0.088-0.089,0.131-0.179,0.131
		c-0.154,0-0.287,0.023-0.553,0.068c-0.6,0.109-0.777,0.484-0.822,1.256c-0.043,0.707-0.043,1.324-0.043,4.766v3.881H64.396z"/>
	<path d="M77.014,14.447c0,2.117,0,3.861,0.11,4.787c0.066,0.64,0.199,1.126,0.865,1.215c0.312,0.043,0.799,0.088,0.997,0.088
		c0.134,0,0.179,0.065,0.179,0.133c0,0.109-0.112,0.176-0.355,0.176c-1.22,0-2.617-0.066-2.729-0.066
		c-0.11,0-1.508,0.066-2.173,0.066c-0.243,0-0.354-0.045-0.354-0.176c0-0.067,0.044-0.133,0.178-0.133
		c0.199,0,0.465-0.045,0.665-0.088c0.444-0.089,0.556-0.575,0.644-1.215c0.109-0.926,0.109-2.67,0.109-4.787v-9.33l-3.281,0.045
		c-1.375,0.021-1.908,0.176-2.262,0.705c-0.244,0.375-0.311,0.529-0.377,0.684c-0.066,0.176-0.133,0.221-0.223,0.221
		c-0.066,0-0.109-0.066-0.109-0.199c0-0.221,0.443-2.117,0.486-2.293c0.045-0.133,0.134-0.42,0.223-0.42
		c0.154,0,0.377,0.221,0.976,0.266c0.643,0.066,1.485,0.109,1.751,0.109h8.318c0.709,0,1.219-0.043,1.574-0.109
		c0.332-0.045,0.531-0.111,0.621-0.111c0.11,0,0.11,0.133,0.11,0.266c0,0.662-0.067,2.184-0.067,2.426
		c0,0.199-0.066,0.287-0.154,0.287c-0.111,0-0.156-0.066-0.178-0.375l-0.021-0.242c-0.066-0.662-0.6-1.17-2.729-1.213l-2.794-0.045
		V14.447z"/>
	<path d="M89.81,4.72c0.266-0.728,0.354-0.86,0.487-0.86c0.133,0,0.222,0.11,0.487,0.795c0.334,0.838,3.815,9.948,5.167,13.301
		c0.799,1.965,1.442,2.318,1.907,2.449c0.334,0.109,0.666,0.133,0.887,0.133c0.135,0,0.223,0.021,0.223,0.131
		c0,0.133-0.199,0.178-0.443,0.178c-0.332,0-1.951,0-3.481-0.045c-0.422-0.021-0.666-0.021-0.666-0.154
		c0-0.088,0.067-0.133,0.156-0.152c0.132-0.045,0.266-0.244,0.132-0.598l-2.063-5.426c-0.043-0.089-0.088-0.133-0.198-0.133h-4.769
		c-0.111,0-0.178,0.066-0.223,0.176l-1.33,3.906c-0.199,0.551-0.311,1.08-0.311,1.477c0,0.441,0.466,0.641,0.844,0.641h0.221
		c0.155,0,0.222,0.043,0.222,0.131c0,0.133-0.134,0.178-0.333,0.178c-0.531,0-1.486-0.066-1.729-0.066
		c-0.244,0-1.465,0.066-2.507,0.066c-0.288,0-0.421-0.045-0.421-0.178c0-0.088,0.088-0.131,0.199-0.131
		c0.154,0,0.465-0.023,0.643-0.043c1.021-0.135,1.463-0.973,1.863-2.074L89.81,4.72z M92.115,13.544c0.11,0,0.11-0.067,0.089-0.155
		l-2.107-5.955c-0.11-0.331-0.221-0.331-0.332,0l-1.952,5.955c-0.044,0.111,0,0.155,0.066,0.155H92.115z"/>
	<path d="M102.294,18.771c-2.15-1.918-2.684-4.434-2.684-6.529c0-1.479,0.51-4.059,2.485-6.021c1.329-1.324,3.348-2.361,6.764-2.361
		c0.887,0,2.129,0.066,3.216,0.266c0.843,0.154,1.552,0.286,2.263,0.33c0.242,0.022,0.287,0.111,0.287,0.243
		c0,0.177-0.066,0.44-0.109,1.235c-0.047,0.729-0.047,1.941-0.068,2.271c-0.021,0.332-0.065,0.463-0.198,0.463
		c-0.153,0-0.179-0.154-0.179-0.463c0-0.859-0.354-1.764-0.93-2.249c-0.777-0.662-2.484-1.258-4.436-1.258
		c-2.951,0-4.326,0.86-5.102,1.61c-1.619,1.543-1.996,3.506-1.996,5.758c0,4.213,3.26,8.072,8.006,8.072
		c1.662,0,2.972-0.197,3.857-1.102c0.467-0.486,0.756-1.455,0.82-1.854c0.046-0.242,0.089-0.33,0.223-0.33
		c0.11,0,0.155,0.153,0.155,0.33c0,0.154-0.267,2.074-0.487,2.824c-0.135,0.418-0.178,0.463-0.576,0.639
		c-0.889,0.354-2.572,0.508-3.992,0.508C106.285,21.154,104.046,20.338,102.294,18.771"/>
	<path d="M123.185,4.72c0.267-0.728,0.354-0.86,0.486-0.86c0.133,0,0.223,0.11,0.488,0.795c0.334,0.838,3.816,9.948,5.168,13.301
		c0.799,1.965,1.441,2.318,1.906,2.449c0.334,0.109,0.666,0.133,0.888,0.133c0.133,0,0.222,0.021,0.222,0.131
		c0,0.133-0.199,0.178-0.443,0.178c-0.332,0-1.95,0-3.48-0.045c-0.423-0.021-0.665-0.021-0.665-0.154
		c0-0.088,0.065-0.133,0.154-0.152c0.133-0.045,0.267-0.244,0.133-0.598l-2.062-5.426c-0.045-0.089-0.09-0.133-0.201-0.133h-4.768
		c-0.111,0-0.178,0.066-0.223,0.176l-1.33,3.906c-0.2,0.551-0.311,1.08-0.311,1.477c0,0.441,0.465,0.641,0.842,0.641h0.222
		c0.156,0,0.224,0.043,0.224,0.131c0,0.133-0.135,0.178-0.334,0.178c-0.531,0-1.484-0.066-1.729-0.066s-1.465,0.066-2.506,0.066
		c-0.29,0-0.422-0.045-0.422-0.178c0-0.088,0.088-0.131,0.199-0.131c0.153,0,0.465-0.023,0.643-0.043
		c1.02-0.135,1.464-0.973,1.863-2.074L123.185,4.72z M125.489,13.544c0.111,0,0.111-0.067,0.09-0.155l-2.107-5.955
		c-0.109-0.331-0.221-0.331-0.332,0l-1.951,5.955c-0.045,0.111,0,0.155,0.066,0.155H125.489z"/>
	<path d="M135.513,10.566c0-3.441,0-4.059-0.043-4.766c-0.045-0.75-0.223-1.102-0.955-1.256c-0.177-0.045-0.555-0.068-0.752-0.068
		c-0.09,0-0.18-0.043-0.18-0.131c0-0.133,0.111-0.178,0.355-0.178c0.998,0,2.395,0.066,2.506,0.066c0.244,0,1.93-0.066,2.617-0.066
		c1.396,0,2.883,0.135,4.059,0.971c0.555,0.398,1.531,1.479,1.531,3.002c0,1.631-0.688,3.264-2.685,5.094
		c1.818,2.316,3.325,4.28,4.612,5.648c1.197,1.257,2.15,1.499,2.706,1.588c0.42,0.066,0.729,0.066,0.864,0.066
		c0.109,0,0.197,0.065,0.197,0.132c0,0.132-0.131,0.177-0.531,0.177h-1.573c-1.242,0-1.798-0.111-2.373-0.42
		c-0.953-0.506-1.729-1.588-2.994-3.242c-0.933-1.213-1.974-2.691-2.417-3.266c-0.089-0.088-0.155-0.131-0.288-0.131l-2.729-0.045
		c-0.108,0-0.153,0.066-0.153,0.176v0.529c0,2.119,0,3.861,0.11,4.787c0.066,0.641,0.199,1.126,0.863,1.215
		c0.313,0.043,0.801,0.088,0.998,0.088c0.135,0,0.178,0.065,0.178,0.132c0,0.11-0.11,0.177-0.354,0.177
		c-1.22,0-2.615-0.066-2.728-0.066c-0.022,0-1.42,0.066-2.084,0.066c-0.244,0-0.354-0.045-0.354-0.177
		c0-0.066,0.043-0.132,0.177-0.132c0.199,0,0.467-0.045,0.665-0.088c0.444-0.089,0.556-0.574,0.644-1.215
		c0.11-0.926,0.11-2.668,0.11-4.787L135.513,10.566L135.513,10.566z M137.288,12.484c0,0.111,0.045,0.199,0.154,0.266
		c0.332,0.199,1.354,0.352,2.328,0.352c0.533,0,1.153-0.064,1.664-0.418c0.774-0.529,1.354-1.721,1.354-3.396
		c0-2.759-1.465-4.412-3.836-4.412c-0.666,0-1.266,0.066-1.486,0.133c-0.111,0.043-0.178,0.131-0.178,0.264V12.484L137.288,12.484z"
		/>
	<path d="M152.233,10.566c0-3.441,0-4.059-0.043-4.766c-0.045-0.75-0.224-1.103-0.955-1.258c-0.178-0.043-0.555-0.065-0.754-0.065
		c-0.088,0-0.178-0.044-0.178-0.132c0-0.133,0.11-0.177,0.354-0.177c0.51,0,1.108,0,1.598,0.021l0.908,0.045
		c0.155,0,4.569,0,5.079-0.021c0.421-0.023,0.775-0.066,0.953-0.111c0.111-0.021,0.199-0.109,0.312-0.109
		c0.066,0,0.089,0.088,0.089,0.197c0,0.156-0.109,0.42-0.177,1.038c-0.022,0.22-0.067,1.192-0.112,1.456
		c-0.021,0.109-0.066,0.242-0.154,0.242c-0.133,0-0.178-0.109-0.178-0.287c0-0.154-0.021-0.527-0.133-0.793
		c-0.154-0.354-0.378-0.618-1.574-0.75c-0.377-0.045-2.795-0.066-3.039-0.066c-0.088,0-0.133,0.066-0.133,0.221v6.088
		c0,0.154,0.022,0.221,0.133,0.221c0.289,0,3.017,0,3.525-0.043c0.533-0.045,0.844-0.09,1.043-0.311
		c0.155-0.176,0.244-0.286,0.333-0.286c0.065,0,0.109,0.044,0.109,0.177c0,0.133-0.109,0.508-0.177,1.234
		c-0.045,0.441-0.09,1.258-0.09,1.412c0,0.178,0,0.419-0.154,0.419c-0.11,0-0.155-0.087-0.155-0.198c0-0.221,0-0.441-0.088-0.729
		c-0.089-0.309-0.288-0.684-1.153-0.771c-0.599-0.066-2.794-0.109-3.173-0.109c-0.108,0-0.153,0.064-0.153,0.153v1.942
		c0,0.749-0.021,3.309,0,3.771c0.065,1.521,0.399,1.809,2.572,1.809c0.576,0,1.553,0,2.129-0.242
		c0.576-0.243,0.844-0.684,0.997-1.59c0.045-0.242,0.09-0.33,0.201-0.33c0.133,0,0.133,0.178,0.133,0.33
		c0,0.178-0.178,1.678-0.289,2.141c-0.155,0.574-0.332,0.574-1.196,0.574c-1.664,0-2.884-0.045-3.748-0.066
		c-0.865-0.045-1.396-0.066-1.73-0.066c-0.043,0-0.421,0-0.887,0.021c-0.443,0-0.954,0.045-1.286,0.045
		c-0.243,0-0.354-0.045-0.354-0.176c0-0.067,0.045-0.135,0.178-0.135c0.199,0,0.467-0.043,0.664-0.086
		c0.444-0.089,0.556-0.574,0.646-1.213c0.108-0.928,0.108-2.67,0.108-4.787V10.566L152.233,10.566z M158.644,1.168
		c0.111,0.199,0,0.266-0.088,0.266c-0.065,0-0.289-0.045-0.666,0c-1.086,0.11-2.639,0.617-3.371,0.926
		c-0.154,0.066-0.289,0.111-0.334,0.111c-0.043,0-0.108-0.045-0.108-0.133c0-0.066,0.045-0.109,0.153-0.176
		c0.799-0.553,2.861-1.787,3.018-1.875c0.378-0.222,0.51-0.287,0.62-0.287c0.067,0,0.112,0.043,0.223,0.197
		C158.244,0.418,158.399,0.727,158.644,1.168"/>
	<path d="M62.788,34.357c0-3.441,0-4.061-0.045-4.766c-0.043-0.75-0.221-1.104-0.947-1.258c-0.176-0.043-0.553-0.066-0.75-0.066
		c-0.09,0-0.176-0.043-0.176-0.132c0-0.132,0.109-0.177,0.352-0.177c0.992,0,2.316,0.066,2.493,0.066
		c0.484,0,1.765-0.066,2.778-0.066c2.758,0,3.75,0.927,4.104,1.258c0.486,0.463,1.104,1.456,1.104,2.625
		c0,3.133-2.295,5.25-5.427,5.25c-0.11,0-0.353,0-0.463-0.021c-0.11,0-0.243-0.045-0.243-0.155c0-0.176,0.133-0.198,0.596-0.198
		c2.141,0,3.816-1.566,3.816-3.596c0-0.727-0.066-2.205-1.235-3.396s-2.515-1.104-3.022-1.104c-0.375,0-0.749,0.045-0.948,0.133
		c-0.132,0.044-0.177,0.199-0.177,0.419v9.066c0,2.117,0,3.86,0.11,4.786c0.066,0.641,0.198,1.125,0.86,1.215
		c0.309,0.043,0.795,0.088,0.993,0.088c0.132,0,0.177,0.066,0.177,0.132c0,0.11-0.111,0.177-0.354,0.177
		c-1.213,0-2.604-0.066-2.713-0.066c-0.066,0-1.457,0.066-2.118,0.066c-0.243,0-0.353-0.045-0.353-0.177
		c0-0.065,0.043-0.132,0.176-0.132c0.198,0,0.465-0.045,0.662-0.088c0.441-0.09,0.552-0.574,0.64-1.215
		c0.11-0.926,0.11-2.669,0.11-4.786V34.357z"/>
	<path d="M77.192,28.512c0.265-0.729,0.353-0.861,0.484-0.861c0.133,0,0.221,0.11,0.486,0.795c0.33,0.838,3.795,9.947,5.139,13.301
		c0.795,1.963,1.436,2.317,1.898,2.449c0.33,0.109,0.662,0.133,0.883,0.133c0.131,0,0.219,0.021,0.219,0.132
		c0,0.132-0.197,0.177-0.439,0.177c-0.332,0-1.942,0-3.465-0.045c-0.418-0.021-0.661-0.021-0.661-0.154
		c0-0.088,0.066-0.133,0.155-0.154c0.132-0.045,0.264-0.242,0.132-0.596l-2.053-5.427c-0.043-0.089-0.087-0.132-0.198-0.132H75.03
		c-0.109,0-0.176,0.066-0.221,0.176l-1.323,3.904c-0.198,0.553-0.309,1.082-0.309,1.479c0,0.441,0.464,0.641,0.838,0.641h0.22
		c0.156,0,0.221,0.043,0.221,0.132c0,0.132-0.131,0.177-0.33,0.177c-0.529,0-1.478-0.066-1.721-0.066
		c-0.243,0-1.455,0.066-2.492,0.066c-0.287,0-0.42-0.045-0.42-0.177c0-0.089,0.09-0.132,0.199-0.132c0.154,0,0.464-0.023,0.64-0.045
		c1.015-0.133,1.456-0.971,1.853-2.074L77.192,28.512z M79.487,37.334c0.109,0,0.109-0.065,0.088-0.153l-2.097-5.956
		c-0.11-0.332-0.22-0.332-0.331,0l-1.939,5.956c-0.045,0.11,0,0.153,0.064,0.153H79.487z"/>
	<path d="M87.515,34.357c0-3.442,0-4.061-0.044-4.766c-0.043-0.75-0.22-1.104-0.949-1.258c-0.175-0.043-0.551-0.066-0.749-0.066
		c-0.088,0-0.177-0.043-0.177-0.133c0-0.131,0.11-0.176,0.353-0.176c0.993,0,2.383,0.066,2.494,0.066
		c0.242,0,1.918-0.066,2.604-0.066c1.389,0,2.866,0.133,4.035,0.973c0.552,0.395,1.522,1.477,1.522,2.998
		c0,1.633-0.684,3.266-2.669,5.096c1.809,2.317,3.309,4.279,4.588,5.647c1.191,1.257,2.141,1.499,2.691,1.588
		c0.418,0.067,0.727,0.067,0.859,0.067c0.111,0,0.199,0.064,0.199,0.132c0,0.132-0.133,0.177-0.529,0.177h-1.566
		c-1.234,0-1.787-0.111-2.359-0.42c-0.949-0.506-1.722-1.588-2.979-3.242c-0.927-1.213-1.964-2.691-2.404-3.265
		c-0.089-0.089-0.154-0.132-0.287-0.132l-2.713-0.045c-0.111,0-0.154,0.066-0.154,0.177v0.529c0,2.118,0,3.86,0.109,4.786
		c0.066,0.641,0.199,1.125,0.861,1.214c0.309,0.044,0.795,0.089,0.992,0.089c0.133,0,0.176,0.064,0.176,0.132
		c0,0.11-0.109,0.177-0.352,0.177c-1.215,0-2.604-0.066-2.714-0.066c-0.022,0-1.412,0.066-2.074,0.066
		c-0.243,0-0.353-0.045-0.353-0.177c0-0.067,0.044-0.132,0.177-0.132c0.198,0,0.464-0.045,0.661-0.089
		c0.441-0.089,0.552-0.573,0.641-1.214c0.109-0.926,0.109-2.668,0.109-4.786L87.515,34.357L87.515,34.357z M89.28,36.275
		c0,0.111,0.043,0.199,0.154,0.266c0.33,0.198,1.346,0.353,2.316,0.353c0.529,0,1.146-0.065,1.654-0.419
		c0.771-0.53,1.345-1.721,1.345-3.397c0-2.757-1.456-4.413-3.815-4.413c-0.662,0-1.258,0.068-1.479,0.135
		c-0.111,0.043-0.176,0.133-0.176,0.264L89.28,36.275L89.28,36.275z"/>
	<path d="M105.492,28.512c0.264-0.729,0.353-0.861,0.485-0.861c0.131,0,0.221,0.11,0.484,0.795
		c0.331,0.838,3.794,9.947,5.141,13.301c0.795,1.963,1.434,2.317,1.896,2.449c0.332,0.109,0.662,0.133,0.883,0.133
		c0.134,0,0.222,0.021,0.222,0.132c0,0.132-0.199,0.177-0.441,0.177c-0.33,0-1.941,0-3.463-0.045
		c-0.42-0.021-0.662-0.021-0.662-0.154c0-0.088,0.066-0.133,0.154-0.154c0.133-0.045,0.264-0.242,0.133-0.596l-2.053-5.427
		c-0.043-0.089-0.088-0.132-0.197-0.132h-4.742c-0.111,0-0.178,0.066-0.221,0.176l-1.324,3.904
		c-0.199,0.553-0.309,1.082-0.309,1.479c0,0.441,0.463,0.641,0.838,0.641h0.221c0.154,0,0.221,0.043,0.221,0.132
		c0,0.132-0.133,0.177-0.332,0.177c-0.529,0-1.477-0.066-1.719-0.066c-0.244,0-1.456,0.066-2.494,0.066
		c-0.286,0-0.418-0.045-0.418-0.177c0-0.089,0.088-0.132,0.198-0.132c0.154,0,0.463-0.023,0.64-0.045
		c1.014-0.133,1.455-0.971,1.854-2.074L105.492,28.512z M107.786,37.334c0.109,0,0.109-0.065,0.088-0.153l-2.096-5.956
		c-0.109-0.332-0.221-0.332-0.332,0l-1.939,5.956c-0.045,0.11,0,0.153,0.064,0.153H107.786z"/>
	<path d="M115.815,34.356c0-3.441,0-4.06-0.045-4.765c-0.043-0.75-0.221-1.104-0.949-1.258c-0.176-0.043-0.551-0.066-0.748-0.066
		c-0.09,0-0.178-0.045-0.178-0.133c0-0.131,0.109-0.176,0.354-0.176c0.992,0,2.382,0.066,2.492,0.066
		c0.265,0,1.654-0.066,2.979-0.066c2.184,0,6.221-0.197,8.846,2.516c1.104,1.146,2.142,2.977,2.142,5.604
		c0,2.779-1.147,4.918-2.383,6.219c-0.949,0.994-2.935,2.538-6.687,2.538c-0.947,0-2.117-0.066-3.064-0.132
		c-0.971-0.066-1.721-0.133-1.831-0.133c-0.044,0-0.419,0-0.882,0.021c-0.44,0-0.948,0.045-1.28,0.045
		c-0.242,0-0.353-0.045-0.353-0.177c0-0.067,0.043-0.132,0.176-0.132c0.199,0,0.464-0.045,0.662-0.089
		c0.441-0.089,0.553-0.573,0.64-1.214c0.11-0.926,0.11-2.668,0.11-4.787V34.356L115.815,34.356z M117.668,36.739
		c0,2.337,0.022,4.368,0.044,4.786c0.021,0.551,0.066,1.434,0.243,1.677c0.287,0.419,1.146,0.882,3.749,0.882
		c2.053,0,3.949-0.75,5.25-2.051c1.148-1.125,1.766-3.242,1.766-5.271c0-2.803-1.213-4.611-2.117-5.56
		c-2.074-2.183-4.59-2.493-7.213-2.493c-0.443,0-1.258,0.066-1.435,0.154c-0.199,0.088-0.265,0.199-0.265,0.441
		c-0.022,0.75-0.022,3-0.022,4.699V36.739z"/>
	<path d="M135.733,38.238c0,2.119,0,3.861,0.108,4.787c0.067,0.641,0.199,1.125,0.861,1.214c0.31,0.044,0.795,0.089,0.991,0.089
		c0.134,0,0.178,0.064,0.178,0.132c0,0.11-0.109,0.177-0.354,0.177c-1.213,0-2.604-0.066-2.713-0.066
		c-0.111,0-1.5,0.066-2.162,0.066c-0.242,0-0.354-0.045-0.354-0.177c0-0.067,0.045-0.132,0.176-0.132
		c0.199,0,0.465-0.045,0.664-0.089c0.439-0.089,0.551-0.573,0.639-1.214c0.11-0.926,0.11-2.668,0.11-4.787v-3.882
		c0-3.441,0-4.06-0.045-4.765c-0.044-0.75-0.265-1.125-0.75-1.235c-0.243-0.065-0.528-0.089-0.683-0.089
		c-0.09,0-0.178-0.043-0.178-0.133c0-0.131,0.11-0.176,0.354-0.176c0.729,0,2.117,0.066,2.229,0.066c0.109,0,1.5-0.066,2.16-0.066
		c0.244,0,0.354,0.045,0.354,0.176c0,0.09-0.088,0.133-0.178,0.133c-0.152,0-0.285,0.023-0.552,0.066
		c-0.595,0.111-0.771,0.486-0.815,1.258c-0.043,0.705-0.043,1.323-0.043,4.765v3.882H135.733z"/>
	<path d="M140.231,44.35c-0.309-0.154-0.33-0.242-0.33-0.838c0-1.104,0.089-1.986,0.109-2.339c0.022-0.243,0.067-0.353,0.178-0.353
		c0.133,0,0.153,0.066,0.153,0.242c0,0.199,0,0.508,0.066,0.816c0.331,1.633,1.786,2.25,3.266,2.25c2.117,0,3.154-1.521,3.154-2.934
		c0-1.521-0.642-2.404-2.537-3.971l-0.992-0.816c-2.339-1.92-2.868-3.287-2.868-4.787c0-2.361,1.766-3.971,4.565-3.971
		c0.86,0,1.5,0.088,2.053,0.221c0.419,0.088,0.595,0.109,0.771,0.109c0.178,0,0.223,0.045,0.223,0.156
		c0,0.109-0.089,0.838-0.089,2.337c0,0.354-0.043,0.508-0.153,0.508c-0.133,0-0.154-0.11-0.178-0.287
		c-0.021-0.264-0.152-0.86-0.287-1.103c-0.132-0.242-0.727-1.17-2.756-1.17c-1.523,0-2.713,0.949-2.713,2.56
		c0,1.257,0.572,2.052,2.691,3.706l0.616,0.484c2.603,2.053,3.222,3.42,3.222,5.185c0,0.905-0.354,2.581-1.877,3.662
		c-0.947,0.661-2.14,0.927-3.33,0.927C142.151,44.945,141.138,44.791,140.231,44.35"/>
	<path d="M152.276,34.357c0-3.441,0-4.061-0.045-4.766c-0.043-0.75-0.222-1.104-0.947-1.258c-0.178-0.043-0.553-0.066-0.75-0.066
		c-0.088,0-0.178-0.043-0.178-0.132c0-0.132,0.11-0.177,0.354-0.177c0.507,0,1.104,0,1.59,0.023l0.902,0.043
		c0.156,0,4.545,0,5.053-0.021c0.419-0.021,0.771-0.066,0.948-0.109c0.11-0.023,0.198-0.111,0.31-0.111
		c0.064,0,0.088,0.088,0.088,0.199c0,0.153-0.111,0.418-0.177,1.035c-0.022,0.221-0.065,1.191-0.11,1.457
		c-0.021,0.109-0.065,0.242-0.153,0.242c-0.134,0-0.177-0.109-0.177-0.286c0-0.155-0.022-0.53-0.133-0.794
		c-0.154-0.354-0.375-0.619-1.565-0.751c-0.375-0.044-2.779-0.065-3.022-0.065c-0.089,0-0.132,0.065-0.132,0.221v6.088
		c0,0.154,0.021,0.22,0.132,0.22c0.286,0,3,0,3.508-0.044c0.528-0.043,0.838-0.088,1.037-0.309c0.153-0.177,0.241-0.287,0.33-0.287
		c0.066,0,0.11,0.045,0.11,0.178c0,0.131-0.11,0.507-0.179,1.234c-0.043,0.441-0.086,1.258-0.086,1.412c0,0.177,0,0.419-0.155,0.419
		c-0.109,0-0.153-0.089-0.153-0.198c0-0.221,0-0.441-0.088-0.729c-0.089-0.309-0.288-0.684-1.146-0.771
		c-0.597-0.066-2.779-0.109-3.154-0.109c-0.111,0-0.154,0.064-0.154,0.152v1.942c0,0.749-0.021,3.31,0,3.772
		c0.066,1.521,0.396,1.809,2.559,1.809c0.572,0,1.545,0,2.117-0.242c0.573-0.242,0.84-0.684,0.994-1.588
		c0.043-0.242,0.088-0.332,0.197-0.332c0.133,0,0.133,0.178,0.133,0.332c0,0.176-0.177,1.676-0.287,2.139
		c-0.154,0.572-0.33,0.572-1.191,0.572c-1.653,0-2.866-0.043-3.727-0.064c-0.861-0.045-1.392-0.066-1.723-0.066
		c-0.043,0-0.418,0-0.881,0.021c-0.441,0-0.949,0.045-1.279,0.045c-0.243,0-0.354-0.045-0.354-0.177
		c0-0.065,0.043-0.132,0.177-0.132c0.198,0,0.463-0.045,0.661-0.088c0.44-0.09,0.552-0.574,0.64-1.215
		c0.11-0.926,0.11-2.669,0.11-4.786v-3.882H152.276z"/>
</g>
<g opacity="0.8">
	<g>
		<path fill="#FFFFFF" d="M40,126c-22.091,0-40,17.908-40,40.002c0,22.092,17.909,40,40,40c22.093,0,40-17.908,40-40
			C80,143.908,62.092,126,40,126 M32.19,187.248v-42.494l21.249,21.248L32.19,187.248z"/>
	</g>
</g>
<g>
	<path fill="#FFFFFF" d="M20.127,45.087c5.526,0,10.521,2.236,14.143,5.858c3.621,3.621,5.857,8.615,5.857,14.141
		s-2.236,10.521-5.857,14.142c-3.622,3.621-8.616,5.859-14.143,5.859c-5.525,0-10.521-2.238-14.142-5.859
		c-3.621-3.62-5.858-8.615-5.858-14.142c0-5.525,2.237-10.52,5.858-14.141C9.606,47.323,14.602,45.087,20.127,45.087 M33.173,52.052
		c-3.345-3.333-7.952-5.404-13.046-5.404c-5.094,0-9.701,2.071-13.034,5.404c-3.334,3.334-5.405,7.941-5.405,13.034
		c0,5.095,2.071,9.702,5.405,13.045c3.333,3.334,7.94,5.396,13.034,5.396c5.094,0,9.701-2.062,13.046-5.396
		c3.333-3.343,5.394-7.95,5.394-13.045C38.566,59.993,36.506,55.386,33.173,52.052"/>
	<path fill="#FFFFFF" d="M21.655,60.995v-1.64c0-0.786,0.521-0.974,0.897-0.974h2.291v-3.5h-3.154c-3.511,0-4.297,2.59-4.297,4.273
		v1.84h-2.039v2.469v1.616h2.061V75.29h4.087V65.08h3.022l0.134-1.604l0.243-2.48L21.655,60.995L21.655,60.995z"/>
</g>
<g>
	<path fill="#FFFFFF" d="M140.126,45.082c5.527,0,10.521,2.248,14.143,5.858c3.621,3.621,5.858,8.627,5.858,14.152
		c0,5.515-2.237,10.521-5.858,14.142c-3.621,3.609-8.615,5.858-14.143,5.858c-5.525,0-10.52-2.249-14.143-5.858
		c-3.619-3.621-5.856-8.627-5.856-14.142c0-5.525,2.237-10.531,5.856-14.152C129.606,47.33,134.601,45.082,140.126,45.082
		 M153.161,52.048c-3.333-3.333-7.939-5.394-13.035-5.394c-5.093,0-9.7,2.061-13.034,5.394c-3.344,3.334-5.403,7.951-5.403,13.045
		c0,5.083,2.061,9.701,5.403,13.034c3.334,3.333,7.941,5.404,13.034,5.404c5.096,0,9.702-2.071,13.035-5.404
		c3.344-3.333,5.402-7.951,5.402-13.034C158.563,59.999,156.505,55.382,153.161,52.048"/>
	<path fill="#FFFFFF" d="M150.138,60.829c0,0-0.209-1.473-0.818-2.114c-0.775-0.843-1.65-0.854-2.039-0.908
		c-2.856-0.212-7.143-0.212-7.143-0.212h-0.021c0,0-4.273,0-7.133,0.212c-0.408,0.055-1.272,0.065-2.047,0.908
		c-0.61,0.642-0.819,2.114-0.819,2.114s-0.212,1.727-0.212,3.433v0.223v1.405c0,1.729,0.212,3.434,0.212,3.434
		s0.209,1.472,0.819,2.126c0.773,0.853,1.795,0.819,2.258,0.907c1.629,0.168,6.943,0.223,6.943,0.223s4.285-0.022,7.143-0.223
		c0.389-0.055,1.264-0.055,2.039-0.907c0.609-0.654,0.818-2.126,0.818-2.126s0.198-1.705,0.198-3.434v-1.317v-0.311
		C150.336,62.556,150.138,60.829,150.138,60.829 M143.538,64.86l-5.525,2.979v-4.585v-1.395l2.502,1.361L143.538,64.86z"/>
</g>
<g>
	<path fill="#FFFFFF" d="M100.126,45.087c5.518,0,10.521,2.236,14.143,5.858c3.621,3.621,5.858,8.615,5.858,14.141
		s-2.237,10.521-5.858,14.142s-8.625,5.859-14.143,5.859c-5.525,0-10.53-2.238-14.141-5.859c-3.621-3.62-5.858-8.615-5.858-14.142
		c0-5.525,2.237-10.52,5.858-14.141C89.596,47.323,94.601,45.087,100.126,45.087 M113.161,52.052
		c-3.333-3.333-7.939-5.403-13.035-5.403c-5.093,0-9.7,2.07-13.045,5.403c-3.332,3.334-5.392,7.941-5.392,13.034
		c0,5.095,2.06,9.702,5.392,13.045c3.345,3.334,7.952,5.395,13.045,5.395c5.096,0,9.702-2.061,13.035-5.395
		c3.334-3.343,5.404-7.95,5.404-13.045C118.565,59.993,116.495,55.386,113.161,52.052"/>
	<path fill="#FFFFFF" d="M110.325,64.571c-0.143-5.382-4.573-9.689-10.021-9.689c-5.382,0-9.779,4.196-10.001,9.501
		c-0.021,0.134-0.021,0.289-0.021,0.432c0,1.872,0.53,3.633,1.439,5.139l-1.816,5.339l5.559-1.761
		c1.439,0.785,3.091,1.229,4.841,1.229c5.537,0,10.032-4.441,10.032-9.945C110.337,64.727,110.325,64.66,110.325,64.571
		 M104.897,66.831c-0.252-0.122-1.448-0.721-1.67-0.81c-0.244-0.066-0.398-0.121-0.565,0.134c-0.155,0.243-0.632,0.785-0.774,0.941
		c-0.144,0.176-0.287,0.188-0.521,0.076c-0.267-0.121-1.052-0.375-1.982-1.218c-0.741-0.653-1.24-1.438-1.372-1.671
		c-0.134-0.267-0.024-0.377,0.099-0.521c0.122-0.099,0.255-0.267,0.376-0.421c0.034-0.032,0.067-0.065,0.089-0.109
		c0.067-0.101,0.101-0.179,0.155-0.289c0.088-0.166,0.056-0.311-0.022-0.421c-0.044-0.122-0.542-1.34-0.754-1.815
		c-0.198-0.499-0.408-0.411-0.541-0.411c-0.155,0-0.312-0.021-0.477-0.021c-0.178,0-0.432,0.056-0.654,0.311
		c-0.243,0.243-0.874,0.819-0.874,2.037c0,0.277,0.055,0.564,0.145,0.819c0.232,0.874,0.785,1.572,0.863,1.695
		c0.122,0.165,1.694,2.701,4.196,3.677c2.515,0.974,2.515,0.641,2.957,0.608c0.443-0.034,1.451-0.575,1.66-1.163
		c0.199-0.565,0.199-1.052,0.133-1.162C105.31,67.019,105.144,66.94,104.897,66.831 M100.305,73.188c-1.706,0-3.301-0.51-4.63-1.385
		l-3.233,1.03l1.041-3.112c-1.008-1.373-1.605-3.079-1.605-4.906c0-0.276,0.011-0.53,0.045-0.809
		c0.419-4.24,4.019-7.552,8.383-7.552c4.429,0,8.071,3.4,8.404,7.707c0.023,0.222,0.023,0.443,0.023,0.653
		C108.731,69.422,104.955,73.188,100.305,73.188"/>
</g>
<g>
	<path fill="#FFFFFF" d="M180.128,45.082c5.525,0,10.52,2.248,14.141,5.858c3.623,3.621,5.858,8.627,5.858,14.152
		c0,5.515-2.235,10.521-5.858,14.142c-3.621,3.609-8.615,5.858-14.141,5.858c-5.527,0-10.521-2.249-14.143-5.858
		c-3.623-3.621-5.858-8.627-5.858-14.142c0-5.525,2.235-10.531,5.858-14.152C169.606,47.33,174.601,45.082,180.128,45.082
		 M193.162,52.048c-3.334-3.333-7.94-5.394-13.034-5.394c-5.096,0-9.702,2.061-13.035,5.394c-3.344,3.334-5.404,7.951-5.404,13.045
		c0,5.083,2.062,9.701,5.404,13.034c3.333,3.333,7.939,5.404,13.035,5.404c5.094,0,9.7-2.071,13.034-5.404
		c3.344-3.333,5.403-7.951,5.403-13.034C198.565,59.999,196.506,55.382,193.162,52.048"/>
	<path fill="#FFFFFF" d="M190.337,58.858c-0.74,0.32-1.55,0.543-2.4,0.653c0.873-0.521,1.537-1.317,1.849-2.293
		c-0.81,0.477-1.716,0.82-2.668,1.008c-0.755-0.809-1.851-1.307-3.069-1.307c-2.303,0-4.186,1.85-4.186,4.12
		c0,0.332,0.057,0.642,0.121,0.941c-3.487-0.166-6.578-1.806-8.639-4.309c-0.354,0.62-0.574,1.317-0.574,2.07
		c0,1.44,0.752,2.703,1.858,3.434c-0.687-0.011-1.328-0.2-1.892-0.51v0.057c0,0.53,0.099,1.019,0.287,1.483
		c0.509,1.296,1.672,2.271,3.078,2.547c-0.365,0.101-0.721,0.155-1.106,0.155c-0.267,0-0.532-0.034-0.787-0.089
		c0.543,1.639,2.082,2.834,3.91,2.88c-1.438,1.107-3.233,1.76-5.194,1.76c-0.343,0-0.664-0.022-1.007-0.056
		c1.858,1.164,4.063,1.851,6.422,1.851c6.545,0,10.589-4.529,11.64-9.236c0.188-0.842,0.276-1.672,0.276-2.491v-0.531
		C189.063,60.407,189.784,59.678,190.337,58.858"/>
</g>
<g>
	<path fill="#FFFFFF" d="M60.128,45.087c5.526,0,10.531,2.236,14.141,5.858c3.622,3.621,5.858,8.615,5.858,14.141
		s-2.236,10.521-5.858,14.142c-3.609,3.621-8.614,5.859-14.141,5.859c-5.515,0-10.521-2.238-14.143-5.859
		c-3.62-3.62-5.858-8.615-5.858-14.142c0-5.525,2.238-10.52,5.858-14.141C49.607,47.323,54.613,45.087,60.128,45.087 M73.173,52.052
		c-3.344-3.333-7.95-5.403-13.045-5.403c-5.083,0-9.702,2.07-13.034,5.403c-3.335,3.334-5.405,7.941-5.405,13.034
		c0,5.095,2.07,9.702,5.405,13.045c3.332,3.334,7.951,5.395,13.034,5.395c5.095,0,9.701-2.061,13.045-5.395
		c3.334-3.343,5.393-7.95,5.393-13.045C78.565,59.993,76.507,55.386,73.173,52.052"/>
	<path fill="#FFFFFF" d="M55.012,65.08c0-2.823,2.292-5.126,5.116-5.126c2.835,0,5.128,2.303,5.128,5.126
		c0,2.836-2.293,5.128-5.128,5.128C57.304,70.208,55.012,67.916,55.012,65.08 M65.421,55.06H54.846c-2.604,0-4.74,2.126-4.74,4.738
		v10.577c0,2.602,2.137,4.738,4.74,4.738h10.575c2.613,0,4.739-2.137,4.739-4.738V59.798C70.16,57.186,68.034,55.06,65.421,55.06
		 M54.846,56.244h10.575c1.96,0,3.555,1.594,3.555,3.554v10.577c0,1.959-1.595,3.554-3.555,3.554H54.846
		c-1.961,0-3.556-1.595-3.556-3.554V59.798C51.29,57.838,52.885,56.244,54.846,56.244 M66.473,57.738
		c-0.576,0-1.041,0.466-1.041,1.041c0,0.576,0.465,1.042,1.041,1.042c0.576,0,1.042-0.466,1.042-1.042
		C67.515,58.204,67.049,57.738,66.473,57.738 M66.595,65.08c0-3.564-2.891-6.466-6.467-6.466c-3.566,0-6.468,2.901-6.468,6.466
		c0,3.578,2.901,6.468,6.468,6.468C63.704,71.548,66.595,68.658,66.595,65.08"/>
</g>
<g>
	<path fill="#008080" d="M20.127,85.096c5.526,0,10.521,2.237,14.143,5.859c3.621,3.621,5.857,8.615,5.857,14.142
		c0,5.527-2.236,10.521-5.857,14.144c-3.622,3.62-8.616,5.857-14.143,5.857c-5.525,0-10.521-2.237-14.143-5.857
		c-3.621-3.623-5.857-8.617-5.857-14.144c0-5.527,2.236-10.521,5.857-14.142C9.605,87.333,14.602,85.096,20.127,85.096
		 M33.173,92.063c-3.345-3.334-7.952-5.404-13.046-5.404c-5.094,0-9.702,2.07-13.034,5.404c-3.335,3.333-5.405,7.941-5.405,13.034
		c0,5.095,2.07,9.701,5.405,13.046c3.332,3.333,7.94,5.393,13.034,5.393c5.094,0,9.701-2.06,13.046-5.393
		c3.334-3.345,5.394-7.951,5.394-13.046C38.566,100.004,36.507,95.396,33.173,92.063"/>
	<path fill="#008080" d="M21.655,101.004v-1.639c0-0.785,0.521-0.974,0.896-0.974h2.292v-3.499h-3.155
		c-3.511,0-4.298,2.59-4.298,4.273v1.838h-2.037v2.47v1.617h2.061v10.21h4.087v-10.21h3.022l0.134-1.604l0.243-2.482H21.655z"/>
</g>
<g>
	<path fill="#008080" d="M140.12,85.091c5.525,0,10.521,2.249,14.143,5.857c3.62,3.622,5.857,8.628,5.857,14.154
		c0,5.515-2.237,10.521-5.857,14.141c-3.621,3.61-8.615,5.859-14.143,5.859s-10.521-2.249-14.143-5.859
		c-3.619-3.62-5.857-8.626-5.857-14.141c0-5.526,2.238-10.532,5.857-14.154C129.601,87.34,134.595,85.091,140.12,85.091
		 M153.155,92.058c-3.334-3.333-7.94-5.394-13.035-5.394c-5.094,0-9.701,2.061-13.034,5.394c-3.344,3.333-5.403,7.95-5.403,13.045
		c0,5.083,2.061,9.7,5.403,13.035c3.333,3.331,7.94,5.402,13.034,5.402c5.095,0,9.701-2.071,13.035-5.402
		c3.344-3.335,5.402-7.952,5.402-13.035C158.558,100.008,156.499,95.391,153.155,92.058"/>
	<path fill="#008080" d="M150.132,100.84c0,0-0.21-1.475-0.818-2.114c-0.775-0.844-1.651-0.854-2.039-0.909
		c-2.856-0.211-7.144-0.211-7.144-0.211h-0.021c0,0-4.274,0-7.133,0.211c-0.408,0.055-1.273,0.065-2.047,0.909
		c-0.611,0.64-0.82,2.114-0.82,2.114s-0.211,1.727-0.211,3.432v0.222v1.406c0,1.729,0.211,3.434,0.211,3.434s0.209,1.473,0.82,2.126
		c0.772,0.853,1.795,0.819,2.258,0.907c1.629,0.167,6.942,0.224,6.942,0.224s4.286-0.024,7.144-0.224
		c0.388-0.055,1.264-0.055,2.039-0.907c0.608-0.653,0.818-2.126,0.818-2.126s0.198-1.704,0.198-3.434v-1.316v-0.312
		C150.33,102.566,150.132,100.84,150.132,100.84 M143.532,104.87l-5.526,2.978v-4.584v-1.396l2.502,1.362L143.532,104.87z"/>
</g>
<g>
	<path fill="#008080" d="M100.126,85.097c5.516,0,10.521,2.237,14.143,5.859c3.621,3.62,5.858,8.614,5.858,14.141
		c0,5.527-2.237,10.521-5.858,14.143c-3.621,3.62-8.627,5.857-14.143,5.857c-5.525,0-10.531-2.237-14.141-5.857
		c-3.621-3.622-5.858-8.616-5.858-14.143c0-5.527,2.237-10.521,5.858-14.141C89.595,87.334,94.601,85.097,100.126,85.097
		 M113.161,92.063c-3.333-3.333-7.939-5.403-13.035-5.403c-5.094,0-9.7,2.07-13.045,5.403c-3.333,3.333-5.392,7.941-5.392,13.034
		c0,5.095,2.059,9.701,5.392,13.045c3.345,3.333,7.951,5.393,13.045,5.393c5.096,0,9.702-2.06,13.035-5.393
		c3.333-3.344,5.402-7.95,5.402-13.045C118.563,100.004,116.494,95.396,113.161,92.063"/>
	<path fill="#008080" d="M110.325,104.583c-0.143-5.382-4.573-9.69-10.021-9.69c-5.382,0-9.778,4.196-10,9.502
		c-0.022,0.132-0.022,0.287-0.022,0.432c0,1.871,0.531,3.633,1.44,5.139l-1.816,5.338l5.559-1.762
		c1.439,0.786,3.09,1.229,4.84,1.229c5.537,0,10.032-4.44,10.032-9.944C110.336,104.738,110.325,104.671,110.325,104.583
		 M104.897,106.842c-0.252-0.122-1.448-0.721-1.672-0.809c-0.242-0.067-0.396-0.122-0.563,0.132
		c-0.155,0.243-0.632,0.786-0.774,0.942c-0.145,0.177-0.287,0.188-0.521,0.076c-0.267-0.12-1.052-0.375-1.982-1.218
		c-0.741-0.653-1.24-1.439-1.372-1.672c-0.134-0.266-0.024-0.375,0.099-0.52c0.121-0.101,0.255-0.268,0.376-0.421
		c0.034-0.033,0.066-0.067,0.089-0.111c0.067-0.1,0.101-0.178,0.155-0.288c0.088-0.166,0.055-0.311-0.022-0.42
		c-0.045-0.123-0.543-1.342-0.754-1.816c-0.198-0.498-0.408-0.41-0.541-0.41c-0.156,0-0.312-0.022-0.477-0.022
		c-0.179,0-0.432,0.056-0.654,0.31c-0.243,0.245-0.874,0.819-0.874,2.038c0,0.278,0.055,0.565,0.145,0.819
		c0.232,0.874,0.785,1.573,0.863,1.695c0.122,0.165,1.694,2.7,4.196,3.676c2.515,0.975,2.515,0.642,2.957,0.609
		c0.443-0.033,1.451-0.576,1.66-1.162c0.199-0.565,0.199-1.054,0.133-1.163C105.31,107.028,105.144,106.951,104.897,106.842
		 M100.304,113.197c-1.705,0-3.3-0.509-4.629-1.384l-3.233,1.03l1.041-3.111c-1.008-1.374-1.606-3.079-1.606-4.906
		c0-0.276,0.012-0.532,0.045-0.809c0.42-4.242,4.019-7.552,8.383-7.552c4.43,0,8.072,3.399,8.405,7.707
		c0.021,0.222,0.021,0.442,0.021,0.653C108.731,109.433,104.954,113.197,100.304,113.197"/>
</g>
<g>
	<path fill="#008080" d="M180.128,85.091c5.525,0,10.52,2.249,14.141,5.857c3.623,3.622,5.858,8.628,5.858,14.154
		c0,5.515-2.235,10.521-5.858,14.141c-3.621,3.61-8.615,5.859-14.141,5.859c-5.527,0-10.521-2.249-14.143-5.859
		c-3.623-3.62-5.858-8.626-5.858-14.141c0-5.526,2.235-10.532,5.858-14.154C169.606,87.34,174.601,85.091,180.128,85.091
		 M193.162,92.058c-3.334-3.333-7.94-5.394-13.034-5.394c-5.096,0-9.702,2.061-13.036,5.394c-3.343,3.333-5.403,7.95-5.403,13.045
		c0,5.083,2.062,9.7,5.403,13.035c3.334,3.331,7.94,5.402,13.036,5.402c5.094,0,9.7-2.071,13.034-5.402
		c3.344-3.335,5.403-7.952,5.403-13.035C198.565,100.008,196.506,95.391,193.162,92.058"/>
	<path fill="#008080" d="M190.337,98.868c-0.742,0.321-1.55,0.543-2.402,0.652c0.875-0.52,1.539-1.316,1.851-2.292
		c-0.81,0.478-1.718,0.819-2.669,1.008c-0.754-0.809-1.85-1.306-3.068-1.306c-2.303,0-4.188,1.85-4.188,4.118
		c0,0.333,0.057,0.644,0.123,0.941c-3.487-0.166-6.578-1.806-8.639-4.308c-0.354,0.62-0.574,1.318-0.574,2.07
		c0,1.44,0.752,2.702,1.858,3.434c-0.687-0.011-1.328-0.199-1.894-0.51v0.057c0,0.53,0.101,1.019,0.287,1.483
		c0.511,1.297,1.674,2.271,3.08,2.546c-0.367,0.102-0.721,0.156-1.106,0.156c-0.267,0-0.532-0.033-0.787-0.09
		c0.542,1.639,2.082,2.835,3.91,2.881c-1.44,1.107-3.234,1.76-5.194,1.76c-0.345,0-0.664-0.021-1.007-0.055
		c1.858,1.164,4.063,1.85,6.422,1.85c6.545,0,10.589-4.529,11.638-9.236c0.189-0.842,0.278-1.672,0.278-2.491v-0.532
		C189.063,100.417,189.784,99.688,190.337,98.868"/>
</g>
<g>
	<path fill="#008080" d="M60.134,85.097c5.525,0,10.531,2.237,14.141,5.859c3.622,3.62,5.858,8.614,5.858,14.141
		c0,5.527-2.236,10.521-5.858,14.143c-3.609,3.62-8.615,5.857-14.141,5.857c-5.516,0-10.521-2.237-14.143-5.857
		c-3.62-3.622-5.858-8.616-5.858-14.143c0-5.527,2.238-10.521,5.858-14.141C49.613,87.334,54.618,85.097,60.134,85.097
		 M73.179,92.063c-3.345-3.333-7.951-5.403-13.045-5.403c-5.084,0-9.702,2.07-13.034,5.403c-3.335,3.333-5.405,7.941-5.405,13.034
		c0,5.095,2.07,9.701,5.405,13.045c3.332,3.333,7.95,5.393,13.034,5.393c5.094,0,9.7-2.06,13.045-5.393
		c3.333-3.344,5.393-7.95,5.393-13.045C78.571,100.004,76.512,95.396,73.179,92.063"/>
	<path fill="#008080" d="M55.018,105.091c0-2.822,2.292-5.125,5.115-5.125c2.836,0,5.129,2.303,5.129,5.125
		c0,2.836-2.293,5.128-5.129,5.128C57.31,110.219,55.018,107.927,55.018,105.091 M65.427,95.07H54.852
		c-2.604,0-4.74,2.126-4.74,4.739v10.576c0,2.601,2.137,4.739,4.74,4.739h10.575c2.613,0,4.739-2.139,4.739-4.739V99.81
		C70.166,97.196,68.04,95.07,65.427,95.07 M54.852,96.254h10.575c1.96,0,3.555,1.595,3.555,3.556v10.576
		c0,1.959-1.595,3.554-3.555,3.554H54.852c-1.961,0-3.556-1.595-3.556-3.554V99.81C51.296,97.849,52.891,96.254,54.852,96.254
		 M66.479,97.75c-0.576,0-1.041,0.465-1.041,1.039c0,0.576,0.465,1.043,1.041,1.043s1.042-0.467,1.042-1.043
		C67.521,98.215,67.055,97.75,66.479,97.75 M66.601,105.091c0-3.565-2.891-6.467-6.468-6.467c-3.565,0-6.468,2.901-6.468,6.467
		c0,3.578,2.902,6.469,6.468,6.469C63.71,111.56,66.601,108.669,66.601,105.091"/>
</g>
<g>
	<path fill="#FFFFFF" d="M28.707,239.765l-4.85,4.895l-2.615-2.621c-0.309-0.307-0.77-0.307-1.078,0c-0.309,0.31-0.309,0.771,0,1.08
		l3.155,3.158c0.154,0.154,0.347,0.23,0.538,0.23c0.193,0,0.385-0.076,0.539-0.23l5.387-5.395c0.309-0.307,0.309-0.771,0-1.078
		C29.515,239.458,29.015,239.458,28.707,239.765"/>
	<path fill="#FFFFFF" d="M44.329,210.522h-1.616v-0.924c0-0.425-0.346-0.771-0.77-0.771c-0.423,0-0.77,0.348-0.77,0.771v0.924
		h-4.232v-0.924c0-0.425-0.346-0.771-0.77-0.771c-0.424,0-0.77,0.348-0.77,0.771v0.924h-4.233v-0.924
		c0-0.425-0.346-0.771-0.769-0.771c-0.424,0-0.77,0.348-0.77,0.771v0.924h-4.618v-0.924c0-0.425-0.347-0.771-0.77-0.771
		c-0.424,0-0.77,0.348-0.77,0.771v0.924h-3.849v-0.924c0-0.425-0.346-0.771-0.769-0.771c-0.424,0-0.771,0.348-0.771,0.771v0.924
		H13.85v-0.924c0-0.425-0.346-0.771-0.771-0.771c-0.423,0-0.769,0.348-0.769,0.771v0.924H8.081v-0.924
		c0-0.425-0.346-0.771-0.77-0.771c-0.423,0-0.77,0.348-0.77,0.771v0.924H4.888c-2.693,0-4.888,2.429-4.888,5.125v27.162
		c0,2.696,2.194,4.698,4.888,4.698h9.659c1.808,3.738,5.617,6.318,10.043,6.318c4.425,0,8.234-2.58,10.043-6.318h9.696
		c2.694,0,4.541-2.002,4.541-4.698v-27.162C48.87,212.951,47.023,210.522,44.329,210.522 M24.59,252.287
		c-5.311,0-9.62-4.314-9.62-9.632s4.31-9.633,9.62-9.633s9.619,4.315,9.619,9.633S29.899,252.287,24.59,252.287 M47.331,242.81
		c0,1.848-1.154,3.158-3.002,3.158h-9.081c0.309-1.039,0.5-2.156,0.5-3.313c0-6.163-5.002-11.174-11.158-11.174
		c-6.157,0-11.159,5.011-11.159,11.174c0,1.156,0.191,2.273,0.5,3.313H4.888c-1.848,0-3.349-1.348-3.349-3.158v-26.893h45.792
		V242.81z"/>
	<path fill="#FFFFFF" d="M7.312,222.853h5.002c0.424,0,0.771-0.348,0.771-0.771c0-0.422-0.347-0.77-0.771-0.77H7.312
		c-0.423,0-0.769,0.346-0.769,0.77S6.889,222.853,7.312,222.853"/>
	<path fill="#FFFFFF" d="M7.312,229.017h5.002c0.424,0,0.771-0.348,0.771-0.771c0-0.422-0.347-0.77-0.771-0.77H7.312
		c-0.423,0-0.769,0.348-0.769,0.77C6.543,228.669,6.889,229.017,7.312,229.017"/>
	<path fill="#FFFFFF" d="M7.312,235.181h5.002c0.424,0,0.771-0.348,0.771-0.77c0-0.425-0.347-0.771-0.771-0.771H7.312
		c-0.423,0-0.769,0.348-0.769,0.771C6.543,234.833,6.889,235.181,7.312,235.181"/>
	<path fill="#FFFFFF" d="M7.312,241.345h5.002c0.424,0,0.771-0.346,0.771-0.77c0-0.425-0.347-0.771-0.771-0.771H7.312
		c-0.423,0-0.769,0.348-0.769,0.771C6.543,240.998,6.889,241.345,7.312,241.345"/>
	<path fill="#FFFFFF" d="M17.316,222.853h5.002c0.424,0,0.771-0.348,0.771-0.771c0-0.422-0.347-0.77-0.771-0.77h-5.002
		c-0.423,0-0.769,0.346-0.769,0.77S16.894,222.853,17.316,222.853"/>
	<path fill="#FFFFFF" d="M17.316,229.017h5.002c0.424,0,0.771-0.348,0.771-0.771c0-0.422-0.347-0.77-0.771-0.77h-5.002
		c-0.423,0-0.769,0.348-0.769,0.77C16.548,228.669,16.894,229.017,17.316,229.017"/>
	<path fill="#FFFFFF" d="M27.321,222.853h5.002c0.424,0,0.771-0.348,0.771-0.771c0-0.422-0.347-0.77-0.771-0.77h-5.002
		c-0.423,0-0.77,0.346-0.77,0.77S26.898,222.853,27.321,222.853"/>
	<path fill="#FFFFFF" d="M27.321,229.017h5.002c0.424,0,0.771-0.348,0.771-0.771c0-0.422-0.347-0.77-0.771-0.77h-5.002
		c-0.423,0-0.77,0.348-0.77,0.77C26.552,228.669,26.898,229.017,27.321,229.017"/>
	<path fill="#FFFFFF" d="M37.326,222.853h5.002c0.425,0,0.771-0.348,0.771-0.771c0-0.422-0.346-0.77-0.771-0.77h-5.002
		c-0.424,0-0.77,0.346-0.77,0.77S36.902,222.853,37.326,222.853"/>
	<path fill="#FFFFFF" d="M37.326,229.017h5.002c0.425,0,0.771-0.348,0.771-0.771c0-0.422-0.346-0.77-0.771-0.77h-5.002
		c-0.424,0-0.77,0.348-0.77,0.77C36.557,228.669,36.902,229.017,37.326,229.017"/>
	<path fill="#FFFFFF" d="M37.326,235.181h5.002c0.425,0,0.771-0.348,0.771-0.77c0-0.425-0.346-0.771-0.771-0.771h-5.002
		c-0.424,0-0.77,0.348-0.77,0.771C36.557,234.833,36.902,235.181,37.326,235.181"/>
	<path fill="#FFFFFF" d="M37.326,241.345h5.002c0.425,0,0.771-0.346,0.771-0.77c0-0.425-0.346-0.771-0.771-0.771h-5.002
		c-0.424,0-0.77,0.348-0.77,0.771C36.556,240.998,36.902,241.345,37.326,241.345"/>
</g>
</svg>
